%TF.GenerationSoftware,KiCad,Pcbnew,(5.1.10)-1*%
%TF.CreationDate,2021-10-02T23:44:58-05:00*%
%TF.ProjectId,OzSec 2021 - Sponsor,4f7a5365-6320-4323-9032-31202d205370,rev?*%
%TF.SameCoordinates,Original*%
%TF.FileFunction,Copper,L2,Bot*%
%TF.FilePolarity,Positive*%
%FSLAX46Y46*%
G04 Gerber Fmt 4.6, Leading zero omitted, Abs format (unit mm)*
G04 Created by KiCad (PCBNEW (5.1.10)-1) date 2021-10-02 23:44:58*
%MOMM*%
%LPD*%
G01*
G04 APERTURE LIST*
%TA.AperFunction,EtchedComponent*%
%ADD10C,0.010000*%
%TD*%
%TA.AperFunction,ComponentPad*%
%ADD11C,1.727200*%
%TD*%
%TA.AperFunction,ComponentPad*%
%ADD12O,1.727200X1.727200*%
%TD*%
%TA.AperFunction,ComponentPad*%
%ADD13R,1.727200X1.727200*%
%TD*%
%TA.AperFunction,SMDPad,CuDef*%
%ADD14R,2.600000X5.560000*%
%TD*%
%TA.AperFunction,SMDPad,CuDef*%
%ADD15R,8.000000X5.560000*%
%TD*%
%TA.AperFunction,SMDPad,CuDef*%
%ADD16R,2.000000X2.500000*%
%TD*%
%TA.AperFunction,ComponentPad*%
%ADD17O,12.500000X5.500000*%
%TD*%
%TA.AperFunction,SMDPad,CuDef*%
%ADD18R,0.800000X1.000000*%
%TD*%
%TA.AperFunction,SMDPad,CuDef*%
%ADD19R,1.500000X0.700000*%
%TD*%
%TA.AperFunction,Conductor*%
%ADD20C,0.250000*%
%TD*%
G04 APERTURE END LIST*
D10*
%TO.C,G\u002A\u002A\u002A*%
G36*
X91600249Y-58249772D02*
G01*
X91714161Y-58279434D01*
X91805694Y-58339897D01*
X91871417Y-58424104D01*
X91907898Y-58524998D01*
X91911706Y-58635525D01*
X91879411Y-58748627D01*
X91860472Y-58784928D01*
X91788726Y-58868307D01*
X91693845Y-58922304D01*
X91585446Y-58944356D01*
X91473148Y-58931901D01*
X91406171Y-58905926D01*
X91316165Y-58840116D01*
X91258141Y-58756156D01*
X91230031Y-58661046D01*
X91229762Y-58561784D01*
X91255267Y-58465369D01*
X91304473Y-58378801D01*
X91375312Y-58309080D01*
X91465712Y-58263203D01*
X91573604Y-58248171D01*
X91600249Y-58249772D01*
G37*
X91600249Y-58249772D02*
X91714161Y-58279434D01*
X91805694Y-58339897D01*
X91871417Y-58424104D01*
X91907898Y-58524998D01*
X91911706Y-58635525D01*
X91879411Y-58748627D01*
X91860472Y-58784928D01*
X91788726Y-58868307D01*
X91693845Y-58922304D01*
X91585446Y-58944356D01*
X91473148Y-58931901D01*
X91406171Y-58905926D01*
X91316165Y-58840116D01*
X91258141Y-58756156D01*
X91230031Y-58661046D01*
X91229762Y-58561784D01*
X91255267Y-58465369D01*
X91304473Y-58378801D01*
X91375312Y-58309080D01*
X91465712Y-58263203D01*
X91573604Y-58248171D01*
X91600249Y-58249772D01*
G36*
X93144237Y-58256585D02*
G01*
X93240104Y-58296167D01*
X93316181Y-58361481D01*
X93370159Y-58445633D01*
X93399727Y-58541727D01*
X93402577Y-58642870D01*
X93376399Y-58742167D01*
X93318882Y-58832723D01*
X93247184Y-58895303D01*
X93162248Y-58930866D01*
X93058904Y-58942764D01*
X92954240Y-58930404D01*
X92890708Y-58907680D01*
X92812867Y-58847381D01*
X92756267Y-58760327D01*
X92723817Y-58657919D01*
X92718428Y-58551562D01*
X92743008Y-58452659D01*
X92764625Y-58413618D01*
X92843543Y-58323406D01*
X92935757Y-58270003D01*
X93030889Y-58249630D01*
X93144237Y-58256585D01*
G37*
X93144237Y-58256585D02*
X93240104Y-58296167D01*
X93316181Y-58361481D01*
X93370159Y-58445633D01*
X93399727Y-58541727D01*
X93402577Y-58642870D01*
X93376399Y-58742167D01*
X93318882Y-58832723D01*
X93247184Y-58895303D01*
X93162248Y-58930866D01*
X93058904Y-58942764D01*
X92954240Y-58930404D01*
X92890708Y-58907680D01*
X92812867Y-58847381D01*
X92756267Y-58760327D01*
X92723817Y-58657919D01*
X92718428Y-58551562D01*
X92743008Y-58452659D01*
X92764625Y-58413618D01*
X92843543Y-58323406D01*
X92935757Y-58270003D01*
X93030889Y-58249630D01*
X93144237Y-58256585D01*
G36*
X94675056Y-58270588D02*
G01*
X94770827Y-58327316D01*
X94829570Y-58388706D01*
X94870329Y-58470425D01*
X94889175Y-58569998D01*
X94885608Y-58671811D01*
X94859131Y-58760248D01*
X94842304Y-58787990D01*
X94758246Y-58871496D01*
X94657221Y-58924928D01*
X94548624Y-58945966D01*
X94441851Y-58932290D01*
X94376706Y-58902975D01*
X94282902Y-58823334D01*
X94224354Y-58723645D01*
X94203173Y-58610196D01*
X94221473Y-58489276D01*
X94229770Y-58465498D01*
X94287635Y-58366131D01*
X94369111Y-58295930D01*
X94466183Y-58255922D01*
X94570837Y-58247132D01*
X94675056Y-58270588D01*
G37*
X94675056Y-58270588D02*
X94770827Y-58327316D01*
X94829570Y-58388706D01*
X94870329Y-58470425D01*
X94889175Y-58569998D01*
X94885608Y-58671811D01*
X94859131Y-58760248D01*
X94842304Y-58787990D01*
X94758246Y-58871496D01*
X94657221Y-58924928D01*
X94548624Y-58945966D01*
X94441851Y-58932290D01*
X94376706Y-58902975D01*
X94282902Y-58823334D01*
X94224354Y-58723645D01*
X94203173Y-58610196D01*
X94221473Y-58489276D01*
X94229770Y-58465498D01*
X94287635Y-58366131D01*
X94369111Y-58295930D01*
X94466183Y-58255922D01*
X94570837Y-58247132D01*
X94675056Y-58270588D01*
G36*
X97483616Y-58256551D02*
G01*
X97579635Y-58296084D01*
X97655806Y-58361344D01*
X97709824Y-58445448D01*
X97739382Y-58541509D01*
X97742174Y-58642644D01*
X97715893Y-58741968D01*
X97658233Y-58832597D01*
X97586351Y-58895303D01*
X97501414Y-58930866D01*
X97398071Y-58942764D01*
X97293407Y-58930404D01*
X97229874Y-58907680D01*
X97152034Y-58847381D01*
X97095434Y-58760327D01*
X97062984Y-58657919D01*
X97057594Y-58551562D01*
X97082175Y-58452659D01*
X97103792Y-58413618D01*
X97182710Y-58323406D01*
X97274924Y-58270003D01*
X97370056Y-58249630D01*
X97483616Y-58256551D01*
G37*
X97483616Y-58256551D02*
X97579635Y-58296084D01*
X97655806Y-58361344D01*
X97709824Y-58445448D01*
X97739382Y-58541509D01*
X97742174Y-58642644D01*
X97715893Y-58741968D01*
X97658233Y-58832597D01*
X97586351Y-58895303D01*
X97501414Y-58930866D01*
X97398071Y-58942764D01*
X97293407Y-58930404D01*
X97229874Y-58907680D01*
X97152034Y-58847381D01*
X97095434Y-58760327D01*
X97062984Y-58657919D01*
X97057594Y-58551562D01*
X97082175Y-58452659D01*
X97103792Y-58413618D01*
X97182710Y-58323406D01*
X97274924Y-58270003D01*
X97370056Y-58249630D01*
X97483616Y-58256551D01*
G36*
X103736024Y-58271070D02*
G01*
X103832803Y-58327919D01*
X103902276Y-58400819D01*
X103933891Y-58471440D01*
X103947900Y-58563918D01*
X103944330Y-58661626D01*
X103923207Y-58747936D01*
X103901637Y-58787990D01*
X103816589Y-58872801D01*
X103715288Y-58926228D01*
X103606566Y-58946283D01*
X103499256Y-58930978D01*
X103425172Y-58895204D01*
X103347985Y-58822093D01*
X103292159Y-58726167D01*
X103264890Y-58622142D01*
X103264660Y-58566904D01*
X103294705Y-58451021D01*
X103353623Y-58359302D01*
X103434315Y-58293598D01*
X103529679Y-58255759D01*
X103632615Y-58247633D01*
X103736024Y-58271070D01*
G37*
X103736024Y-58271070D02*
X103832803Y-58327919D01*
X103902276Y-58400819D01*
X103933891Y-58471440D01*
X103947900Y-58563918D01*
X103944330Y-58661626D01*
X103923207Y-58747936D01*
X103901637Y-58787990D01*
X103816589Y-58872801D01*
X103715288Y-58926228D01*
X103606566Y-58946283D01*
X103499256Y-58930978D01*
X103425172Y-58895204D01*
X103347985Y-58822093D01*
X103292159Y-58726167D01*
X103264890Y-58622142D01*
X103264660Y-58566904D01*
X103294705Y-58451021D01*
X103353623Y-58359302D01*
X103434315Y-58293598D01*
X103529679Y-58255759D01*
X103632615Y-58247633D01*
X103736024Y-58271070D01*
G36*
X105201696Y-58260303D02*
G01*
X105300390Y-58314603D01*
X105385859Y-58406076D01*
X105390038Y-58412176D01*
X105430506Y-58507431D01*
X105439004Y-58615235D01*
X105417762Y-58723261D01*
X105369010Y-58819187D01*
X105304650Y-58884141D01*
X105223870Y-58920856D01*
X105123099Y-58938001D01*
X105020497Y-58934356D01*
X104934785Y-58908988D01*
X104848902Y-58845851D01*
X104793755Y-58757828D01*
X104767012Y-58640889D01*
X104764994Y-58615817D01*
X104763275Y-58535781D01*
X104772629Y-58479782D01*
X104796744Y-58430171D01*
X104807108Y-58414337D01*
X104892485Y-58320192D01*
X104991123Y-58263122D01*
X105096400Y-58243151D01*
X105201696Y-58260303D01*
G37*
X105201696Y-58260303D02*
X105300390Y-58314603D01*
X105385859Y-58406076D01*
X105390038Y-58412176D01*
X105430506Y-58507431D01*
X105439004Y-58615235D01*
X105417762Y-58723261D01*
X105369010Y-58819187D01*
X105304650Y-58884141D01*
X105223870Y-58920856D01*
X105123099Y-58938001D01*
X105020497Y-58934356D01*
X104934785Y-58908988D01*
X104848902Y-58845851D01*
X104793755Y-58757828D01*
X104767012Y-58640889D01*
X104764994Y-58615817D01*
X104763275Y-58535781D01*
X104772629Y-58479782D01*
X104796744Y-58430171D01*
X104807108Y-58414337D01*
X104892485Y-58320192D01*
X104991123Y-58263122D01*
X105096400Y-58243151D01*
X105201696Y-58260303D01*
G36*
X111422577Y-58264235D02*
G01*
X111516002Y-58312995D01*
X111591535Y-58391654D01*
X111630064Y-58465498D01*
X111654960Y-58583524D01*
X111642253Y-58697972D01*
X111594940Y-58800519D01*
X111516021Y-58882844D01*
X111469197Y-58912010D01*
X111380006Y-58938965D01*
X111277748Y-58941410D01*
X111181142Y-58920269D01*
X111131785Y-58895375D01*
X111047302Y-58825985D01*
X110997617Y-58750938D01*
X110975836Y-58657216D01*
X110973250Y-58595842D01*
X110976518Y-58513962D01*
X110989510Y-58456739D01*
X111017015Y-58406786D01*
X111030264Y-58388706D01*
X111115104Y-58307609D01*
X111214113Y-58260516D01*
X111319276Y-58246400D01*
X111422577Y-58264235D01*
G37*
X111422577Y-58264235D02*
X111516002Y-58312995D01*
X111591535Y-58391654D01*
X111630064Y-58465498D01*
X111654960Y-58583524D01*
X111642253Y-58697972D01*
X111594940Y-58800519D01*
X111516021Y-58882844D01*
X111469197Y-58912010D01*
X111380006Y-58938965D01*
X111277748Y-58941410D01*
X111181142Y-58920269D01*
X111131785Y-58895375D01*
X111047302Y-58825985D01*
X110997617Y-58750938D01*
X110975836Y-58657216D01*
X110973250Y-58595842D01*
X110976518Y-58513962D01*
X110989510Y-58456739D01*
X111017015Y-58406786D01*
X111030264Y-58388706D01*
X111115104Y-58307609D01*
X111214113Y-58260516D01*
X111319276Y-58246400D01*
X111422577Y-58264235D01*
G36*
X114295196Y-58271585D02*
G01*
X114377124Y-58328577D01*
X114382733Y-58333455D01*
X114448912Y-58403558D01*
X114485814Y-58478256D01*
X114499792Y-58572584D01*
X114500450Y-58612073D01*
X114482522Y-58718448D01*
X114434619Y-58813755D01*
X114363787Y-58886446D01*
X114316860Y-58912916D01*
X114216368Y-58938334D01*
X114109196Y-58938861D01*
X114013978Y-58914901D01*
X113995708Y-58905959D01*
X113907993Y-58840661D01*
X113853133Y-58756260D01*
X113826787Y-58645421D01*
X113824365Y-58616401D01*
X113822588Y-58536335D01*
X113831719Y-58480600D01*
X113855357Y-58431828D01*
X113865938Y-58415780D01*
X113947016Y-58323223D01*
X114039524Y-58268537D01*
X114111763Y-58250918D01*
X114212513Y-58247456D01*
X114295196Y-58271585D01*
G37*
X114295196Y-58271585D02*
X114377124Y-58328577D01*
X114382733Y-58333455D01*
X114448912Y-58403558D01*
X114485814Y-58478256D01*
X114499792Y-58572584D01*
X114500450Y-58612073D01*
X114482522Y-58718448D01*
X114434619Y-58813755D01*
X114363787Y-58886446D01*
X114316860Y-58912916D01*
X114216368Y-58938334D01*
X114109196Y-58938861D01*
X114013978Y-58914901D01*
X113995708Y-58905959D01*
X113907993Y-58840661D01*
X113853133Y-58756260D01*
X113826787Y-58645421D01*
X113824365Y-58616401D01*
X113822588Y-58536335D01*
X113831719Y-58480600D01*
X113855357Y-58431828D01*
X113865938Y-58415780D01*
X113947016Y-58323223D01*
X114039524Y-58268537D01*
X114111763Y-58250918D01*
X114212513Y-58247456D01*
X114295196Y-58271585D01*
G36*
X117104973Y-58259735D02*
G01*
X117203157Y-58306030D01*
X117290180Y-58387018D01*
X117298961Y-58398389D01*
X117337160Y-58479831D01*
X117352341Y-58580350D01*
X117343828Y-58683068D01*
X117313692Y-58766411D01*
X117251934Y-58852813D01*
X117178718Y-58906203D01*
X117082861Y-58933318D01*
X117027430Y-58938864D01*
X116947318Y-58940533D01*
X116891229Y-58931035D01*
X116841521Y-58906699D01*
X116826978Y-58897158D01*
X116737609Y-58813663D01*
X116685372Y-58709838D01*
X116670165Y-58591293D01*
X116689561Y-58474140D01*
X116739441Y-58378906D01*
X116812862Y-58307719D01*
X116902885Y-58262709D01*
X117002569Y-58246004D01*
X117104973Y-58259735D01*
G37*
X117104973Y-58259735D02*
X117203157Y-58306030D01*
X117290180Y-58387018D01*
X117298961Y-58398389D01*
X117337160Y-58479831D01*
X117352341Y-58580350D01*
X117343828Y-58683068D01*
X117313692Y-58766411D01*
X117251934Y-58852813D01*
X117178718Y-58906203D01*
X117082861Y-58933318D01*
X117027430Y-58938864D01*
X116947318Y-58940533D01*
X116891229Y-58931035D01*
X116841521Y-58906699D01*
X116826978Y-58897158D01*
X116737609Y-58813663D01*
X116685372Y-58709838D01*
X116670165Y-58591293D01*
X116689561Y-58474140D01*
X116739441Y-58378906D01*
X116812862Y-58307719D01*
X116902885Y-58262709D01*
X117002569Y-58246004D01*
X117104973Y-58259735D01*
G36*
X121903265Y-58249974D02*
G01*
X121910571Y-58250918D01*
X122014317Y-58282313D01*
X122102459Y-58348779D01*
X122156396Y-58415780D01*
X122191604Y-58499911D01*
X122201686Y-58601885D01*
X122187302Y-58705971D01*
X122149112Y-58796437D01*
X122139876Y-58809903D01*
X122059888Y-58884412D01*
X121957649Y-58929694D01*
X121843697Y-58943299D01*
X121728571Y-58922776D01*
X121700811Y-58912012D01*
X121622978Y-58856869D01*
X121562918Y-58772873D01*
X121527880Y-58672174D01*
X121521884Y-58612073D01*
X121529475Y-58507573D01*
X121557817Y-58427849D01*
X121613260Y-58357865D01*
X121639601Y-58333455D01*
X121722068Y-58274185D01*
X121804185Y-58248116D01*
X121903265Y-58249974D01*
G37*
X121903265Y-58249974D02*
X121910571Y-58250918D01*
X122014317Y-58282313D01*
X122102459Y-58348779D01*
X122156396Y-58415780D01*
X122191604Y-58499911D01*
X122201686Y-58601885D01*
X122187302Y-58705971D01*
X122149112Y-58796437D01*
X122139876Y-58809903D01*
X122059888Y-58884412D01*
X121957649Y-58929694D01*
X121843697Y-58943299D01*
X121728571Y-58922776D01*
X121700811Y-58912012D01*
X121622978Y-58856869D01*
X121562918Y-58772873D01*
X121527880Y-58672174D01*
X121521884Y-58612073D01*
X121529475Y-58507573D01*
X121557817Y-58427849D01*
X121613260Y-58357865D01*
X121639601Y-58333455D01*
X121722068Y-58274185D01*
X121804185Y-58248116D01*
X121903265Y-58249974D01*
G36*
X124837556Y-58270588D02*
G01*
X124933327Y-58327316D01*
X124992070Y-58388706D01*
X125032829Y-58470425D01*
X125051675Y-58569998D01*
X125048108Y-58671811D01*
X125021631Y-58760248D01*
X125004804Y-58787990D01*
X124920746Y-58871496D01*
X124819721Y-58924928D01*
X124711124Y-58945966D01*
X124604351Y-58932290D01*
X124539206Y-58902975D01*
X124445402Y-58823334D01*
X124386854Y-58723645D01*
X124365673Y-58610196D01*
X124383973Y-58489276D01*
X124392270Y-58465498D01*
X124450135Y-58366131D01*
X124531611Y-58295930D01*
X124628683Y-58255922D01*
X124733337Y-58247132D01*
X124837556Y-58270588D01*
G37*
X124837556Y-58270588D02*
X124933327Y-58327316D01*
X124992070Y-58388706D01*
X125032829Y-58470425D01*
X125051675Y-58569998D01*
X125048108Y-58671811D01*
X125021631Y-58760248D01*
X125004804Y-58787990D01*
X124920746Y-58871496D01*
X124819721Y-58924928D01*
X124711124Y-58945966D01*
X124604351Y-58932290D01*
X124539206Y-58902975D01*
X124445402Y-58823334D01*
X124386854Y-58723645D01*
X124365673Y-58610196D01*
X124383973Y-58489276D01*
X124392270Y-58465498D01*
X124450135Y-58366131D01*
X124531611Y-58295930D01*
X124628683Y-58255922D01*
X124733337Y-58247132D01*
X124837556Y-58270588D01*
G36*
X126242432Y-58249974D02*
G01*
X126249738Y-58250918D01*
X126353483Y-58282313D01*
X126441625Y-58348779D01*
X126495563Y-58415780D01*
X126530770Y-58499911D01*
X126540853Y-58601885D01*
X126526469Y-58705971D01*
X126488278Y-58796437D01*
X126479043Y-58809903D01*
X126399055Y-58884412D01*
X126296815Y-58929694D01*
X126182863Y-58943299D01*
X126067737Y-58922776D01*
X126039978Y-58912012D01*
X125962145Y-58856869D01*
X125902085Y-58772873D01*
X125867047Y-58672174D01*
X125861051Y-58612073D01*
X125868642Y-58507573D01*
X125896983Y-58427849D01*
X125952427Y-58357865D01*
X125978767Y-58333455D01*
X126061234Y-58274185D01*
X126143352Y-58248116D01*
X126242432Y-58249974D01*
G37*
X126242432Y-58249974D02*
X126249738Y-58250918D01*
X126353483Y-58282313D01*
X126441625Y-58348779D01*
X126495563Y-58415780D01*
X126530770Y-58499911D01*
X126540853Y-58601885D01*
X126526469Y-58705971D01*
X126488278Y-58796437D01*
X126479043Y-58809903D01*
X126399055Y-58884412D01*
X126296815Y-58929694D01*
X126182863Y-58943299D01*
X126067737Y-58922776D01*
X126039978Y-58912012D01*
X125962145Y-58856869D01*
X125902085Y-58772873D01*
X125867047Y-58672174D01*
X125861051Y-58612073D01*
X125868642Y-58507573D01*
X125896983Y-58427849D01*
X125952427Y-58357865D01*
X125978767Y-58333455D01*
X126061234Y-58274185D01*
X126143352Y-58248116D01*
X126242432Y-58249974D01*
G36*
X129176723Y-58270588D02*
G01*
X129272493Y-58327316D01*
X129331237Y-58388706D01*
X129371996Y-58470425D01*
X129390841Y-58569998D01*
X129387275Y-58671811D01*
X129360798Y-58760248D01*
X129343971Y-58787990D01*
X129259913Y-58871496D01*
X129158887Y-58924928D01*
X129050290Y-58945966D01*
X128943517Y-58932290D01*
X128878373Y-58902975D01*
X128784568Y-58823334D01*
X128726020Y-58723645D01*
X128704840Y-58610196D01*
X128723140Y-58489276D01*
X128731437Y-58465498D01*
X128789302Y-58366131D01*
X128870778Y-58295930D01*
X128967850Y-58255922D01*
X129072504Y-58247132D01*
X129176723Y-58270588D01*
G37*
X129176723Y-58270588D02*
X129272493Y-58327316D01*
X129331237Y-58388706D01*
X129371996Y-58470425D01*
X129390841Y-58569998D01*
X129387275Y-58671811D01*
X129360798Y-58760248D01*
X129343971Y-58787990D01*
X129259913Y-58871496D01*
X129158887Y-58924928D01*
X129050290Y-58945966D01*
X128943517Y-58932290D01*
X128878373Y-58902975D01*
X128784568Y-58823334D01*
X128726020Y-58723645D01*
X128704840Y-58610196D01*
X128723140Y-58489276D01*
X128731437Y-58465498D01*
X128789302Y-58366131D01*
X128870778Y-58295930D01*
X128967850Y-58255922D01*
X129072504Y-58247132D01*
X129176723Y-58270588D01*
G36*
X132306657Y-58257452D02*
G01*
X132409581Y-58301597D01*
X132491009Y-58377815D01*
X132545651Y-58481691D01*
X132564640Y-58564544D01*
X132558376Y-58668127D01*
X132518448Y-58770851D01*
X132451477Y-58858855D01*
X132406662Y-58895204D01*
X132314053Y-58934202D01*
X132208086Y-58944263D01*
X132105196Y-58925379D01*
X132044452Y-58895375D01*
X131960584Y-58826709D01*
X131911005Y-58752632D01*
X131888873Y-58660128D01*
X131885917Y-58593750D01*
X131890188Y-58504894D01*
X131905159Y-58443399D01*
X131929558Y-58400819D01*
X132012872Y-58314336D01*
X132109251Y-58264905D01*
X132187524Y-58249794D01*
X132306657Y-58257452D01*
G37*
X132306657Y-58257452D02*
X132409581Y-58301597D01*
X132491009Y-58377815D01*
X132545651Y-58481691D01*
X132564640Y-58564544D01*
X132558376Y-58668127D01*
X132518448Y-58770851D01*
X132451477Y-58858855D01*
X132406662Y-58895204D01*
X132314053Y-58934202D01*
X132208086Y-58944263D01*
X132105196Y-58925379D01*
X132044452Y-58895375D01*
X131960584Y-58826709D01*
X131911005Y-58752632D01*
X131888873Y-58660128D01*
X131885917Y-58593750D01*
X131890188Y-58504894D01*
X131905159Y-58443399D01*
X131929558Y-58400819D01*
X132012872Y-58314336D01*
X132109251Y-58264905D01*
X132187524Y-58249794D01*
X132306657Y-58257452D01*
G36*
X135097749Y-58249772D02*
G01*
X135213585Y-58279984D01*
X135307406Y-58342659D01*
X135373765Y-58431894D01*
X135407216Y-58541787D01*
X135410167Y-58588390D01*
X135393353Y-58713060D01*
X135344592Y-58815827D01*
X135276650Y-58884141D01*
X135195263Y-58921127D01*
X135093973Y-58938126D01*
X134990798Y-58933965D01*
X134905326Y-58908281D01*
X134847964Y-58866789D01*
X134793103Y-58808327D01*
X134781121Y-58791635D01*
X134751452Y-58740489D01*
X134736878Y-58691767D01*
X134733967Y-58628650D01*
X134736609Y-58573429D01*
X134744677Y-58491799D01*
X134759770Y-58436860D01*
X134787360Y-58392998D01*
X134807897Y-58369978D01*
X134893318Y-58295324D01*
X134978498Y-58256334D01*
X135075277Y-58248096D01*
X135097749Y-58249772D01*
G37*
X135097749Y-58249772D02*
X135213585Y-58279984D01*
X135307406Y-58342659D01*
X135373765Y-58431894D01*
X135407216Y-58541787D01*
X135410167Y-58588390D01*
X135393353Y-58713060D01*
X135344592Y-58815827D01*
X135276650Y-58884141D01*
X135195263Y-58921127D01*
X135093973Y-58938126D01*
X134990798Y-58933965D01*
X134905326Y-58908281D01*
X134847964Y-58866789D01*
X134793103Y-58808327D01*
X134781121Y-58791635D01*
X134751452Y-58740489D01*
X134736878Y-58691767D01*
X134733967Y-58628650D01*
X134736609Y-58573429D01*
X134744677Y-58491799D01*
X134759770Y-58436860D01*
X134787360Y-58392998D01*
X134807897Y-58369978D01*
X134893318Y-58295324D01*
X134978498Y-58256334D01*
X135075277Y-58248096D01*
X135097749Y-58249772D01*
G36*
X142731058Y-58258165D02*
G01*
X142829591Y-58301995D01*
X142917333Y-58380067D01*
X142931795Y-58398389D01*
X142970323Y-58480543D01*
X142985265Y-58581742D01*
X142976012Y-58685474D01*
X142945463Y-58769208D01*
X142876109Y-58853804D01*
X142783718Y-58912300D01*
X142678663Y-58942013D01*
X142571316Y-58940262D01*
X142472049Y-58904367D01*
X142457650Y-58895303D01*
X142369642Y-58812240D01*
X142317124Y-58706828D01*
X142301429Y-58593866D01*
X142319139Y-58477392D01*
X142367650Y-58382261D01*
X142440029Y-58310623D01*
X142529345Y-58264628D01*
X142628665Y-58246426D01*
X142731058Y-58258165D01*
G37*
X142731058Y-58258165D02*
X142829591Y-58301995D01*
X142917333Y-58380067D01*
X142931795Y-58398389D01*
X142970323Y-58480543D01*
X142985265Y-58581742D01*
X142976012Y-58685474D01*
X142945463Y-58769208D01*
X142876109Y-58853804D01*
X142783718Y-58912300D01*
X142678663Y-58942013D01*
X142571316Y-58940262D01*
X142472049Y-58904367D01*
X142457650Y-58895303D01*
X142369642Y-58812240D01*
X142317124Y-58706828D01*
X142301429Y-58593866D01*
X142319139Y-58477392D01*
X142367650Y-58382261D01*
X142440029Y-58310623D01*
X142529345Y-58264628D01*
X142628665Y-58246426D01*
X142731058Y-58258165D01*
G36*
X145610159Y-58265372D02*
G01*
X145703738Y-58315561D01*
X145778734Y-58395912D01*
X145805002Y-58443489D01*
X145830068Y-58513095D01*
X145843933Y-58579510D01*
X145844869Y-58594557D01*
X145829515Y-58677056D01*
X145788557Y-58766931D01*
X145731233Y-58847519D01*
X145678162Y-58895204D01*
X145585553Y-58934202D01*
X145479586Y-58944263D01*
X145376696Y-58925379D01*
X145315952Y-58895375D01*
X145231469Y-58825985D01*
X145181783Y-58750938D01*
X145160003Y-58657216D01*
X145157417Y-58595842D01*
X145160515Y-58514885D01*
X145173233Y-58458148D01*
X145200706Y-58407757D01*
X145218415Y-58383482D01*
X145302125Y-58304402D01*
X145400932Y-58258932D01*
X145506417Y-58246209D01*
X145610159Y-58265372D01*
G37*
X145610159Y-58265372D02*
X145703738Y-58315561D01*
X145778734Y-58395912D01*
X145805002Y-58443489D01*
X145830068Y-58513095D01*
X145843933Y-58579510D01*
X145844869Y-58594557D01*
X145829515Y-58677056D01*
X145788557Y-58766931D01*
X145731233Y-58847519D01*
X145678162Y-58895204D01*
X145585553Y-58934202D01*
X145479586Y-58944263D01*
X145376696Y-58925379D01*
X145315952Y-58895375D01*
X145231469Y-58825985D01*
X145181783Y-58750938D01*
X145160003Y-58657216D01*
X145157417Y-58595842D01*
X145160515Y-58514885D01*
X145173233Y-58458148D01*
X145200706Y-58407757D01*
X145218415Y-58383482D01*
X145302125Y-58304402D01*
X145400932Y-58258932D01*
X145506417Y-58246209D01*
X145610159Y-58265372D01*
G36*
X147070224Y-58258165D02*
G01*
X147168758Y-58301995D01*
X147256500Y-58380067D01*
X147270961Y-58398389D01*
X147309490Y-58480543D01*
X147324432Y-58581742D01*
X147315179Y-58685474D01*
X147284630Y-58769208D01*
X147215275Y-58853804D01*
X147122885Y-58912300D01*
X147017830Y-58942013D01*
X146910483Y-58940262D01*
X146811216Y-58904367D01*
X146796816Y-58895303D01*
X146708809Y-58812240D01*
X146656290Y-58706828D01*
X146640595Y-58593866D01*
X146658306Y-58477392D01*
X146706817Y-58382261D01*
X146779196Y-58310623D01*
X146868512Y-58264628D01*
X146967832Y-58246426D01*
X147070224Y-58258165D01*
G37*
X147070224Y-58258165D02*
X147168758Y-58301995D01*
X147256500Y-58380067D01*
X147270961Y-58398389D01*
X147309490Y-58480543D01*
X147324432Y-58581742D01*
X147315179Y-58685474D01*
X147284630Y-58769208D01*
X147215275Y-58853804D01*
X147122885Y-58912300D01*
X147017830Y-58942013D01*
X146910483Y-58940262D01*
X146811216Y-58904367D01*
X146796816Y-58895303D01*
X146708809Y-58812240D01*
X146656290Y-58706828D01*
X146640595Y-58593866D01*
X146658306Y-58477392D01*
X146706817Y-58382261D01*
X146779196Y-58310623D01*
X146868512Y-58264628D01*
X146967832Y-58246426D01*
X147070224Y-58258165D01*
G36*
X148606363Y-58271585D02*
G01*
X148688290Y-58328577D01*
X148693900Y-58333455D01*
X148760078Y-58403558D01*
X148796981Y-58478256D01*
X148810959Y-58572584D01*
X148811616Y-58612073D01*
X148792042Y-58722073D01*
X148739671Y-58815010D01*
X148662112Y-58886455D01*
X148566974Y-58931978D01*
X148461864Y-58947148D01*
X148354391Y-58927537D01*
X148306875Y-58905959D01*
X148219160Y-58840661D01*
X148164299Y-58756260D01*
X148137954Y-58645421D01*
X148135532Y-58616401D01*
X148133754Y-58536335D01*
X148142885Y-58480600D01*
X148166524Y-58431828D01*
X148177104Y-58415780D01*
X148258182Y-58323223D01*
X148350690Y-58268537D01*
X148422929Y-58250918D01*
X148523680Y-58247456D01*
X148606363Y-58271585D01*
G37*
X148606363Y-58271585D02*
X148688290Y-58328577D01*
X148693900Y-58333455D01*
X148760078Y-58403558D01*
X148796981Y-58478256D01*
X148810959Y-58572584D01*
X148811616Y-58612073D01*
X148792042Y-58722073D01*
X148739671Y-58815010D01*
X148662112Y-58886455D01*
X148566974Y-58931978D01*
X148461864Y-58947148D01*
X148354391Y-58927537D01*
X148306875Y-58905959D01*
X148219160Y-58840661D01*
X148164299Y-58756260D01*
X148137954Y-58645421D01*
X148135532Y-58616401D01*
X148133754Y-58536335D01*
X148142885Y-58480600D01*
X148166524Y-58431828D01*
X148177104Y-58415780D01*
X148258182Y-58323223D01*
X148350690Y-58268537D01*
X148422929Y-58250918D01*
X148523680Y-58247456D01*
X148606363Y-58271585D01*
G36*
X151409391Y-58258165D02*
G01*
X151507924Y-58301995D01*
X151595667Y-58380067D01*
X151610128Y-58398389D01*
X151648327Y-58479831D01*
X151663508Y-58580350D01*
X151654995Y-58683068D01*
X151624859Y-58766411D01*
X151563101Y-58852813D01*
X151489884Y-58906203D01*
X151394027Y-58933318D01*
X151338596Y-58938864D01*
X151258484Y-58940533D01*
X151202395Y-58931035D01*
X151152688Y-58906699D01*
X151138145Y-58897158D01*
X151048669Y-58812972D01*
X150995615Y-58707487D01*
X150979762Y-58593866D01*
X150997473Y-58477392D01*
X151045984Y-58382261D01*
X151118363Y-58310623D01*
X151207678Y-58264628D01*
X151306998Y-58246426D01*
X151409391Y-58258165D01*
G37*
X151409391Y-58258165D02*
X151507924Y-58301995D01*
X151595667Y-58380067D01*
X151610128Y-58398389D01*
X151648327Y-58479831D01*
X151663508Y-58580350D01*
X151654995Y-58683068D01*
X151624859Y-58766411D01*
X151563101Y-58852813D01*
X151489884Y-58906203D01*
X151394027Y-58933318D01*
X151338596Y-58938864D01*
X151258484Y-58940533D01*
X151202395Y-58931035D01*
X151152688Y-58906699D01*
X151138145Y-58897158D01*
X151048669Y-58812972D01*
X150995615Y-58707487D01*
X150979762Y-58593866D01*
X150997473Y-58477392D01*
X151045984Y-58382261D01*
X151118363Y-58310623D01*
X151207678Y-58264628D01*
X151306998Y-58246426D01*
X151409391Y-58258165D01*
G36*
X162147783Y-58256551D02*
G01*
X162243802Y-58296084D01*
X162319973Y-58361344D01*
X162373991Y-58445448D01*
X162403549Y-58541509D01*
X162406340Y-58642644D01*
X162380059Y-58741968D01*
X162322399Y-58832597D01*
X162250517Y-58895303D01*
X162174981Y-58927197D01*
X162079433Y-58942230D01*
X161983355Y-58938787D01*
X161921417Y-58922591D01*
X161830406Y-58862751D01*
X161764725Y-58774299D01*
X161728972Y-58665534D01*
X161725105Y-58568243D01*
X161753253Y-58446960D01*
X161813575Y-58351637D01*
X161903029Y-58285410D01*
X162018576Y-58251412D01*
X162034223Y-58249630D01*
X162147783Y-58256551D01*
G37*
X162147783Y-58256551D02*
X162243802Y-58296084D01*
X162319973Y-58361344D01*
X162373991Y-58445448D01*
X162403549Y-58541509D01*
X162406340Y-58642644D01*
X162380059Y-58741968D01*
X162322399Y-58832597D01*
X162250517Y-58895303D01*
X162174981Y-58927197D01*
X162079433Y-58942230D01*
X161983355Y-58938787D01*
X161921417Y-58922591D01*
X161830406Y-58862751D01*
X161764725Y-58774299D01*
X161728972Y-58665534D01*
X161725105Y-58568243D01*
X161753253Y-58446960D01*
X161813575Y-58351637D01*
X161903029Y-58285410D01*
X162018576Y-58251412D01*
X162034223Y-58249630D01*
X162147783Y-58256551D01*
G36*
X163638254Y-58256247D02*
G01*
X163742989Y-58301230D01*
X163828918Y-58383482D01*
X163864348Y-58436657D01*
X163882807Y-58488461D01*
X163889430Y-58556768D01*
X163889917Y-58595842D01*
X163880079Y-58704659D01*
X163845970Y-58787934D01*
X163780699Y-58858685D01*
X163731382Y-58895375D01*
X163644185Y-58932440D01*
X163540974Y-58943675D01*
X163439559Y-58928710D01*
X163379558Y-58902682D01*
X163291323Y-58827985D01*
X163235279Y-58736677D01*
X163209888Y-58636136D01*
X163213611Y-58533742D01*
X163244911Y-58436874D01*
X163302249Y-58352909D01*
X163384087Y-58289228D01*
X163488885Y-58253209D01*
X163515705Y-58249648D01*
X163638254Y-58256247D01*
G37*
X163638254Y-58256247D02*
X163742989Y-58301230D01*
X163828918Y-58383482D01*
X163864348Y-58436657D01*
X163882807Y-58488461D01*
X163889430Y-58556768D01*
X163889917Y-58595842D01*
X163880079Y-58704659D01*
X163845970Y-58787934D01*
X163780699Y-58858685D01*
X163731382Y-58895375D01*
X163644185Y-58932440D01*
X163540974Y-58943675D01*
X163439559Y-58928710D01*
X163379558Y-58902682D01*
X163291323Y-58827985D01*
X163235279Y-58736677D01*
X163209888Y-58636136D01*
X163213611Y-58533742D01*
X163244911Y-58436874D01*
X163302249Y-58352909D01*
X163384087Y-58289228D01*
X163488885Y-58253209D01*
X163515705Y-58249648D01*
X163638254Y-58256247D01*
G36*
X165069749Y-58249772D02*
G01*
X165185585Y-58279984D01*
X165279406Y-58342659D01*
X165345765Y-58431894D01*
X165379216Y-58541787D01*
X165382167Y-58588390D01*
X165365353Y-58713060D01*
X165316592Y-58815827D01*
X165248650Y-58884141D01*
X165167263Y-58921127D01*
X165065973Y-58938126D01*
X164962798Y-58933965D01*
X164877326Y-58908281D01*
X164819964Y-58866789D01*
X164765103Y-58808327D01*
X164753121Y-58791635D01*
X164723452Y-58740489D01*
X164708878Y-58691767D01*
X164705967Y-58628650D01*
X164708609Y-58573429D01*
X164716677Y-58491799D01*
X164731770Y-58436860D01*
X164759360Y-58392998D01*
X164779897Y-58369978D01*
X164865318Y-58295324D01*
X164950498Y-58256334D01*
X165047277Y-58248096D01*
X165069749Y-58249772D01*
G37*
X165069749Y-58249772D02*
X165185585Y-58279984D01*
X165279406Y-58342659D01*
X165345765Y-58431894D01*
X165379216Y-58541787D01*
X165382167Y-58588390D01*
X165365353Y-58713060D01*
X165316592Y-58815827D01*
X165248650Y-58884141D01*
X165167263Y-58921127D01*
X165065973Y-58938126D01*
X164962798Y-58933965D01*
X164877326Y-58908281D01*
X164819964Y-58866789D01*
X164765103Y-58808327D01*
X164753121Y-58791635D01*
X164723452Y-58740489D01*
X164708878Y-58691767D01*
X164705967Y-58628650D01*
X164708609Y-58573429D01*
X164716677Y-58491799D01*
X164731770Y-58436860D01*
X164759360Y-58392998D01*
X164779897Y-58369978D01*
X164865318Y-58295324D01*
X164950498Y-58256334D01*
X165047277Y-58248096D01*
X165069749Y-58249772D01*
G36*
X167996314Y-58259993D02*
G01*
X168031106Y-58271762D01*
X168092052Y-58309254D01*
X168152212Y-58364454D01*
X168168085Y-58383482D01*
X168203515Y-58436657D01*
X168221974Y-58488461D01*
X168228596Y-58556768D01*
X168229084Y-58595842D01*
X168219245Y-58704659D01*
X168185136Y-58787934D01*
X168119866Y-58858685D01*
X168070549Y-58895375D01*
X167979403Y-58934287D01*
X167873812Y-58944248D01*
X167770211Y-58925266D01*
X167708339Y-58895204D01*
X167644468Y-58834828D01*
X167589339Y-58751414D01*
X167552192Y-58661627D01*
X167541632Y-58594557D01*
X167558828Y-58501849D01*
X167602803Y-58407198D01*
X167663987Y-58329147D01*
X167689571Y-58307831D01*
X167781721Y-58264880D01*
X167890089Y-58248288D01*
X167996314Y-58259993D01*
G37*
X167996314Y-58259993D02*
X168031106Y-58271762D01*
X168092052Y-58309254D01*
X168152212Y-58364454D01*
X168168085Y-58383482D01*
X168203515Y-58436657D01*
X168221974Y-58488461D01*
X168228596Y-58556768D01*
X168229084Y-58595842D01*
X168219245Y-58704659D01*
X168185136Y-58787934D01*
X168119866Y-58858685D01*
X168070549Y-58895375D01*
X167979403Y-58934287D01*
X167873812Y-58944248D01*
X167770211Y-58925266D01*
X167708339Y-58895204D01*
X167644468Y-58834828D01*
X167589339Y-58751414D01*
X167552192Y-58661627D01*
X167541632Y-58594557D01*
X167558828Y-58501849D01*
X167602803Y-58407198D01*
X167663987Y-58329147D01*
X167689571Y-58307831D01*
X167781721Y-58264880D01*
X167890089Y-58248288D01*
X167996314Y-58259993D01*
G36*
X169408916Y-58249772D02*
G01*
X169524752Y-58279984D01*
X169618572Y-58342659D01*
X169684931Y-58431894D01*
X169718383Y-58541787D01*
X169721334Y-58588390D01*
X169704519Y-58713060D01*
X169655759Y-58815827D01*
X169587817Y-58884141D01*
X169506429Y-58921127D01*
X169405139Y-58938126D01*
X169301965Y-58933965D01*
X169216492Y-58908281D01*
X169159130Y-58866789D01*
X169104269Y-58808327D01*
X169092288Y-58791635D01*
X169062619Y-58740489D01*
X169048045Y-58691767D01*
X169045134Y-58628650D01*
X169047775Y-58573429D01*
X169055843Y-58491799D01*
X169070937Y-58436860D01*
X169098527Y-58392998D01*
X169119063Y-58369978D01*
X169204485Y-58295324D01*
X169289665Y-58256334D01*
X169386444Y-58248096D01*
X169408916Y-58249772D01*
G37*
X169408916Y-58249772D02*
X169524752Y-58279984D01*
X169618572Y-58342659D01*
X169684931Y-58431894D01*
X169718383Y-58541787D01*
X169721334Y-58588390D01*
X169704519Y-58713060D01*
X169655759Y-58815827D01*
X169587817Y-58884141D01*
X169506429Y-58921127D01*
X169405139Y-58938126D01*
X169301965Y-58933965D01*
X169216492Y-58908281D01*
X169159130Y-58866789D01*
X169104269Y-58808327D01*
X169092288Y-58791635D01*
X169062619Y-58740489D01*
X169048045Y-58691767D01*
X169045134Y-58628650D01*
X169047775Y-58573429D01*
X169055843Y-58491799D01*
X169070937Y-58436860D01*
X169098527Y-58392998D01*
X169119063Y-58369978D01*
X169204485Y-58295324D01*
X169289665Y-58256334D01*
X169386444Y-58248096D01*
X169408916Y-58249772D01*
G36*
X170952217Y-58256611D02*
G01*
X171048900Y-58296014D01*
X171125589Y-58361142D01*
X171179967Y-58445133D01*
X171209716Y-58541123D01*
X171212518Y-58642251D01*
X171186057Y-58741655D01*
X171128015Y-58832472D01*
X171055851Y-58895303D01*
X170965043Y-58933441D01*
X170858518Y-58943006D01*
X170751875Y-58923911D01*
X170692006Y-58897333D01*
X170603232Y-58823094D01*
X170548092Y-58724986D01*
X170528816Y-58607527D01*
X170530315Y-58569742D01*
X170558361Y-58447976D01*
X170618303Y-58352274D01*
X170707118Y-58285780D01*
X170821783Y-58251637D01*
X170837858Y-58249794D01*
X170952217Y-58256611D01*
G37*
X170952217Y-58256611D02*
X171048900Y-58296014D01*
X171125589Y-58361142D01*
X171179967Y-58445133D01*
X171209716Y-58541123D01*
X171212518Y-58642251D01*
X171186057Y-58741655D01*
X171128015Y-58832472D01*
X171055851Y-58895303D01*
X170965043Y-58933441D01*
X170858518Y-58943006D01*
X170751875Y-58923911D01*
X170692006Y-58897333D01*
X170603232Y-58823094D01*
X170548092Y-58724986D01*
X170528816Y-58607527D01*
X170530315Y-58569742D01*
X170558361Y-58447976D01*
X170618303Y-58352274D01*
X170707118Y-58285780D01*
X170821783Y-58251637D01*
X170837858Y-58249794D01*
X170952217Y-58256611D01*
G36*
X173748082Y-58249772D02*
G01*
X173863919Y-58279984D01*
X173957739Y-58342659D01*
X174024098Y-58431894D01*
X174057549Y-58541787D01*
X174060500Y-58588390D01*
X174043686Y-58713060D01*
X173994926Y-58815827D01*
X173926983Y-58884141D01*
X173845596Y-58921127D01*
X173744306Y-58938126D01*
X173641132Y-58933965D01*
X173555659Y-58908281D01*
X173498297Y-58866789D01*
X173443436Y-58808327D01*
X173431454Y-58791635D01*
X173401785Y-58740489D01*
X173387211Y-58691767D01*
X173384300Y-58628650D01*
X173386942Y-58573429D01*
X173395010Y-58491799D01*
X173410103Y-58436860D01*
X173437693Y-58392998D01*
X173458230Y-58369978D01*
X173543651Y-58295324D01*
X173628832Y-58256334D01*
X173725610Y-58248096D01*
X173748082Y-58249772D01*
G37*
X173748082Y-58249772D02*
X173863919Y-58279984D01*
X173957739Y-58342659D01*
X174024098Y-58431894D01*
X174057549Y-58541787D01*
X174060500Y-58588390D01*
X174043686Y-58713060D01*
X173994926Y-58815827D01*
X173926983Y-58884141D01*
X173845596Y-58921127D01*
X173744306Y-58938126D01*
X173641132Y-58933965D01*
X173555659Y-58908281D01*
X173498297Y-58866789D01*
X173443436Y-58808327D01*
X173431454Y-58791635D01*
X173401785Y-58740489D01*
X173387211Y-58691767D01*
X173384300Y-58628650D01*
X173386942Y-58573429D01*
X173395010Y-58491799D01*
X173410103Y-58436860D01*
X173437693Y-58392998D01*
X173458230Y-58369978D01*
X173543651Y-58295324D01*
X173628832Y-58256334D01*
X173725610Y-58248096D01*
X173748082Y-58249772D01*
G36*
X175291384Y-58256611D02*
G01*
X175388067Y-58296014D01*
X175464756Y-58361142D01*
X175519134Y-58445133D01*
X175548882Y-58541123D01*
X175551685Y-58642251D01*
X175525224Y-58741655D01*
X175467182Y-58832472D01*
X175395017Y-58895303D01*
X175302653Y-58934448D01*
X175196358Y-58944226D01*
X175092675Y-58924657D01*
X175032509Y-58894871D01*
X174971608Y-58843464D01*
X174916670Y-58781068D01*
X174911089Y-58773163D01*
X174881377Y-58720772D01*
X174868509Y-58667319D01*
X174868550Y-58594243D01*
X174869623Y-58577591D01*
X174895713Y-58453548D01*
X174953264Y-58356352D01*
X175039880Y-58288561D01*
X175153161Y-58252731D01*
X175177024Y-58249794D01*
X175291384Y-58256611D01*
G37*
X175291384Y-58256611D02*
X175388067Y-58296014D01*
X175464756Y-58361142D01*
X175519134Y-58445133D01*
X175548882Y-58541123D01*
X175551685Y-58642251D01*
X175525224Y-58741655D01*
X175467182Y-58832472D01*
X175395017Y-58895303D01*
X175302653Y-58934448D01*
X175196358Y-58944226D01*
X175092675Y-58924657D01*
X175032509Y-58894871D01*
X174971608Y-58843464D01*
X174916670Y-58781068D01*
X174911089Y-58773163D01*
X174881377Y-58720772D01*
X174868509Y-58667319D01*
X174868550Y-58594243D01*
X174869623Y-58577591D01*
X174895713Y-58453548D01*
X174953264Y-58356352D01*
X175039880Y-58288561D01*
X175153161Y-58252731D01*
X175177024Y-58249794D01*
X175291384Y-58256611D01*
G36*
X181237930Y-58274334D02*
G01*
X181334079Y-58336108D01*
X181393442Y-58400819D01*
X181425058Y-58471440D01*
X181439067Y-58563918D01*
X181435496Y-58661626D01*
X181414374Y-58747936D01*
X181392804Y-58787990D01*
X181307756Y-58872801D01*
X181206455Y-58926228D01*
X181097733Y-58946283D01*
X180990423Y-58930978D01*
X180916339Y-58895204D01*
X180836737Y-58819931D01*
X180781494Y-58722327D01*
X180757083Y-58616035D01*
X180758613Y-58562703D01*
X180791697Y-58445160D01*
X180852884Y-58353016D01*
X180935139Y-58288068D01*
X181031423Y-58252108D01*
X181134699Y-58246932D01*
X181237930Y-58274334D01*
G37*
X181237930Y-58274334D02*
X181334079Y-58336108D01*
X181393442Y-58400819D01*
X181425058Y-58471440D01*
X181439067Y-58563918D01*
X181435496Y-58661626D01*
X181414374Y-58747936D01*
X181392804Y-58787990D01*
X181307756Y-58872801D01*
X181206455Y-58926228D01*
X181097733Y-58946283D01*
X180990423Y-58930978D01*
X180916339Y-58895204D01*
X180836737Y-58819931D01*
X180781494Y-58722327D01*
X180757083Y-58616035D01*
X180758613Y-58562703D01*
X180791697Y-58445160D01*
X180852884Y-58353016D01*
X180935139Y-58288068D01*
X181031423Y-58252108D01*
X181134699Y-58246932D01*
X181237930Y-58274334D01*
G36*
X90180971Y-57187027D02*
G01*
X90325160Y-57190552D01*
X90435825Y-57198160D01*
X90517363Y-57211267D01*
X90574171Y-57231291D01*
X90610644Y-57259650D01*
X90631178Y-57297759D01*
X90640170Y-57347037D01*
X90641994Y-57393504D01*
X90634000Y-57467716D01*
X90603942Y-57522112D01*
X90590712Y-57536379D01*
X90538758Y-57588334D01*
X90000900Y-57588334D01*
X89835619Y-57588175D01*
X89707297Y-57587436D01*
X89610561Y-57585718D01*
X89540036Y-57582626D01*
X89490350Y-57577760D01*
X89456128Y-57570725D01*
X89431996Y-57561124D01*
X89412582Y-57548558D01*
X89407271Y-57544464D01*
X89370308Y-57506287D01*
X89354229Y-57458067D01*
X89351500Y-57405489D01*
X89353618Y-57343599D01*
X89362897Y-57294559D01*
X89383730Y-57256884D01*
X89420505Y-57229084D01*
X89477615Y-57209673D01*
X89559449Y-57197164D01*
X89670399Y-57190068D01*
X89814854Y-57186898D01*
X89997206Y-57186167D01*
X89998864Y-57186167D01*
X90180971Y-57187027D01*
G37*
X90180971Y-57187027D02*
X90325160Y-57190552D01*
X90435825Y-57198160D01*
X90517363Y-57211267D01*
X90574171Y-57231291D01*
X90610644Y-57259650D01*
X90631178Y-57297759D01*
X90640170Y-57347037D01*
X90641994Y-57393504D01*
X90634000Y-57467716D01*
X90603942Y-57522112D01*
X90590712Y-57536379D01*
X90538758Y-57588334D01*
X90000900Y-57588334D01*
X89835619Y-57588175D01*
X89707297Y-57587436D01*
X89610561Y-57585718D01*
X89540036Y-57582626D01*
X89490350Y-57577760D01*
X89456128Y-57570725D01*
X89431996Y-57561124D01*
X89412582Y-57548558D01*
X89407271Y-57544464D01*
X89370308Y-57506287D01*
X89354229Y-57458067D01*
X89351500Y-57405489D01*
X89353618Y-57343599D01*
X89362897Y-57294559D01*
X89383730Y-57256884D01*
X89420505Y-57229084D01*
X89477615Y-57209673D01*
X89559449Y-57197164D01*
X89670399Y-57190068D01*
X89814854Y-57186898D01*
X89997206Y-57186167D01*
X89998864Y-57186167D01*
X90180971Y-57187027D01*
G36*
X99175430Y-57186930D02*
G01*
X99320011Y-57190176D01*
X99431046Y-57197340D01*
X99512922Y-57209859D01*
X99570028Y-57229167D01*
X99606750Y-57256701D01*
X99627476Y-57293896D01*
X99636594Y-57342186D01*
X99638500Y-57397404D01*
X99627936Y-57473698D01*
X99591421Y-57531372D01*
X99586546Y-57536379D01*
X99534591Y-57588334D01*
X98451243Y-57588334D01*
X98399288Y-57536379D01*
X98360045Y-57479441D01*
X98347412Y-57405648D01*
X98347334Y-57397404D01*
X98349665Y-57337685D01*
X98359586Y-57290378D01*
X98381482Y-57254047D01*
X98419742Y-57227256D01*
X98478752Y-57208571D01*
X98562900Y-57196555D01*
X98676574Y-57189774D01*
X98824160Y-57186791D01*
X98992917Y-57186167D01*
X99175430Y-57186930D01*
G37*
X99175430Y-57186930D02*
X99320011Y-57190176D01*
X99431046Y-57197340D01*
X99512922Y-57209859D01*
X99570028Y-57229167D01*
X99606750Y-57256701D01*
X99627476Y-57293896D01*
X99636594Y-57342186D01*
X99638500Y-57397404D01*
X99627936Y-57473698D01*
X99591421Y-57531372D01*
X99586546Y-57536379D01*
X99534591Y-57588334D01*
X98451243Y-57588334D01*
X98399288Y-57536379D01*
X98360045Y-57479441D01*
X98347412Y-57405648D01*
X98347334Y-57397404D01*
X98349665Y-57337685D01*
X98359586Y-57290378D01*
X98381482Y-57254047D01*
X98419742Y-57227256D01*
X98478752Y-57208571D01*
X98562900Y-57196555D01*
X98676574Y-57189774D01*
X98824160Y-57186791D01*
X98992917Y-57186167D01*
X99175430Y-57186930D01*
G36*
X102009876Y-57189290D02*
G01*
X102077115Y-57190096D01*
X102584401Y-57196750D01*
X102635450Y-57256139D01*
X102675254Y-57329061D01*
X102684430Y-57409899D01*
X102664873Y-57486332D01*
X102618483Y-57546039D01*
X102587920Y-57564833D01*
X102546605Y-57573289D01*
X102464871Y-57579943D01*
X102344598Y-57584718D01*
X102187664Y-57587536D01*
X102021609Y-57588334D01*
X101860154Y-57588153D01*
X101735522Y-57587331D01*
X101642204Y-57585451D01*
X101574688Y-57582094D01*
X101527466Y-57576842D01*
X101495028Y-57569276D01*
X101471863Y-57558978D01*
X101452462Y-57545530D01*
X101451892Y-57545083D01*
X101401940Y-57480969D01*
X101380657Y-57398122D01*
X101391824Y-57312051D01*
X101393795Y-57306631D01*
X101411198Y-57270771D01*
X101436173Y-57242580D01*
X101473449Y-57221249D01*
X101527756Y-57205974D01*
X101603822Y-57195947D01*
X101706378Y-57190361D01*
X101840153Y-57188411D01*
X102009876Y-57189290D01*
G37*
X102009876Y-57189290D02*
X102077115Y-57190096D01*
X102584401Y-57196750D01*
X102635450Y-57256139D01*
X102675254Y-57329061D01*
X102684430Y-57409899D01*
X102664873Y-57486332D01*
X102618483Y-57546039D01*
X102587920Y-57564833D01*
X102546605Y-57573289D01*
X102464871Y-57579943D01*
X102344598Y-57584718D01*
X102187664Y-57587536D01*
X102021609Y-57588334D01*
X101860154Y-57588153D01*
X101735522Y-57587331D01*
X101642204Y-57585451D01*
X101574688Y-57582094D01*
X101527466Y-57576842D01*
X101495028Y-57569276D01*
X101471863Y-57558978D01*
X101452462Y-57545530D01*
X101451892Y-57545083D01*
X101401940Y-57480969D01*
X101380657Y-57398122D01*
X101391824Y-57312051D01*
X101393795Y-57306631D01*
X101411198Y-57270771D01*
X101436173Y-57242580D01*
X101473449Y-57221249D01*
X101527756Y-57205974D01*
X101603822Y-57195947D01*
X101706378Y-57190361D01*
X101840153Y-57188411D01*
X102009876Y-57189290D01*
G36*
X108233255Y-57186923D02*
G01*
X108378101Y-57190145D01*
X108489391Y-57197263D01*
X108571506Y-57209706D01*
X108628828Y-57228905D01*
X108665739Y-57256288D01*
X108686621Y-57293287D01*
X108695856Y-57341330D01*
X108697834Y-57397404D01*
X108687269Y-57473698D01*
X108650754Y-57531372D01*
X108645879Y-57536379D01*
X108593924Y-57588334D01*
X107510576Y-57588334D01*
X107458621Y-57536379D01*
X107421170Y-57483977D01*
X107407757Y-57417258D01*
X107407340Y-57393504D01*
X107410437Y-57334656D01*
X107421691Y-57288069D01*
X107445498Y-57252325D01*
X107486252Y-57226006D01*
X107548352Y-57207696D01*
X107636191Y-57195977D01*
X107754168Y-57189433D01*
X107906677Y-57186645D01*
X108050470Y-57186167D01*
X108233255Y-57186923D01*
G37*
X108233255Y-57186923D02*
X108378101Y-57190145D01*
X108489391Y-57197263D01*
X108571506Y-57209706D01*
X108628828Y-57228905D01*
X108665739Y-57256288D01*
X108686621Y-57293287D01*
X108695856Y-57341330D01*
X108697834Y-57397404D01*
X108687269Y-57473698D01*
X108650754Y-57531372D01*
X108645879Y-57536379D01*
X108593924Y-57588334D01*
X107510576Y-57588334D01*
X107458621Y-57536379D01*
X107421170Y-57483977D01*
X107407757Y-57417258D01*
X107407340Y-57393504D01*
X107410437Y-57334656D01*
X107421691Y-57288069D01*
X107445498Y-57252325D01*
X107486252Y-57226006D01*
X107548352Y-57207696D01*
X107636191Y-57195977D01*
X107754168Y-57189433D01*
X107906677Y-57186645D01*
X108050470Y-57186167D01*
X108233255Y-57186923D01*
G36*
X109902904Y-57196842D02*
G01*
X110032076Y-57197398D01*
X110129386Y-57198844D01*
X110200068Y-57201602D01*
X110249360Y-57206097D01*
X110282495Y-57212752D01*
X110304710Y-57221990D01*
X110321240Y-57234236D01*
X110332371Y-57244963D01*
X110373165Y-57313022D01*
X110384066Y-57395060D01*
X110365662Y-57475677D01*
X110321195Y-57537250D01*
X110261806Y-57588334D01*
X109739112Y-57586901D01*
X109567054Y-57585509D01*
X109420678Y-57582450D01*
X109303922Y-57577889D01*
X109220723Y-57571988D01*
X109175020Y-57564913D01*
X109170298Y-57563172D01*
X109119309Y-57517202D01*
X109090803Y-57447922D01*
X109085802Y-57368511D01*
X109105329Y-57292149D01*
X109144970Y-57236698D01*
X109161107Y-57224498D01*
X109182710Y-57215059D01*
X109214972Y-57208029D01*
X109263083Y-57203058D01*
X109332235Y-57199795D01*
X109427619Y-57197890D01*
X109554428Y-57196992D01*
X109717853Y-57196752D01*
X109736634Y-57196750D01*
X109902904Y-57196842D01*
G37*
X109902904Y-57196842D02*
X110032076Y-57197398D01*
X110129386Y-57198844D01*
X110200068Y-57201602D01*
X110249360Y-57206097D01*
X110282495Y-57212752D01*
X110304710Y-57221990D01*
X110321240Y-57234236D01*
X110332371Y-57244963D01*
X110373165Y-57313022D01*
X110384066Y-57395060D01*
X110365662Y-57475677D01*
X110321195Y-57537250D01*
X110261806Y-57588334D01*
X109739112Y-57586901D01*
X109567054Y-57585509D01*
X109420678Y-57582450D01*
X109303922Y-57577889D01*
X109220723Y-57571988D01*
X109175020Y-57564913D01*
X109170298Y-57563172D01*
X109119309Y-57517202D01*
X109090803Y-57447922D01*
X109085802Y-57368511D01*
X109105329Y-57292149D01*
X109144970Y-57236698D01*
X109161107Y-57224498D01*
X109182710Y-57215059D01*
X109214972Y-57208029D01*
X109263083Y-57203058D01*
X109332235Y-57199795D01*
X109427619Y-57197890D01*
X109554428Y-57196992D01*
X109717853Y-57196752D01*
X109736634Y-57196750D01*
X109902904Y-57196842D01*
G36*
X118772042Y-57196881D02*
G01*
X118901492Y-57197534D01*
X118999028Y-57199101D01*
X119069860Y-57201974D01*
X119119195Y-57206544D01*
X119152245Y-57213204D01*
X119174219Y-57222345D01*
X119190325Y-57234359D01*
X119197510Y-57241269D01*
X119229352Y-57291372D01*
X119251294Y-57358407D01*
X119253664Y-57372539D01*
X119257109Y-57433090D01*
X119241949Y-57476383D01*
X119200778Y-57523812D01*
X119136257Y-57588334D01*
X118610753Y-57586901D01*
X118438021Y-57585515D01*
X118291093Y-57582469D01*
X118173869Y-57577925D01*
X118090247Y-57572046D01*
X118044128Y-57564993D01*
X118039132Y-57563172D01*
X117988142Y-57517202D01*
X117959636Y-57447922D01*
X117954635Y-57368511D01*
X117974162Y-57292149D01*
X118013803Y-57236698D01*
X118029940Y-57224498D01*
X118051543Y-57215059D01*
X118083805Y-57208029D01*
X118131916Y-57203058D01*
X118201068Y-57199795D01*
X118296453Y-57197890D01*
X118423262Y-57196992D01*
X118586686Y-57196752D01*
X118605468Y-57196750D01*
X118772042Y-57196881D01*
G37*
X118772042Y-57196881D02*
X118901492Y-57197534D01*
X118999028Y-57199101D01*
X119069860Y-57201974D01*
X119119195Y-57206544D01*
X119152245Y-57213204D01*
X119174219Y-57222345D01*
X119190325Y-57234359D01*
X119197510Y-57241269D01*
X119229352Y-57291372D01*
X119251294Y-57358407D01*
X119253664Y-57372539D01*
X119257109Y-57433090D01*
X119241949Y-57476383D01*
X119200778Y-57523812D01*
X119136257Y-57588334D01*
X118610753Y-57586901D01*
X118438021Y-57585515D01*
X118291093Y-57582469D01*
X118173869Y-57577925D01*
X118090247Y-57572046D01*
X118044128Y-57564993D01*
X118039132Y-57563172D01*
X117988142Y-57517202D01*
X117959636Y-57447922D01*
X117954635Y-57368511D01*
X117974162Y-57292149D01*
X118013803Y-57236698D01*
X118029940Y-57224498D01*
X118051543Y-57215059D01*
X118083805Y-57208029D01*
X118131916Y-57203058D01*
X118201068Y-57199795D01*
X118296453Y-57197890D01*
X118423262Y-57196992D01*
X118586686Y-57196752D01*
X118605468Y-57196750D01*
X118772042Y-57196881D01*
G36*
X120470471Y-57187027D02*
G01*
X120614660Y-57190552D01*
X120725325Y-57198160D01*
X120806863Y-57211267D01*
X120863671Y-57231291D01*
X120900144Y-57259650D01*
X120920678Y-57297759D01*
X120929670Y-57347037D01*
X120931494Y-57393504D01*
X120923500Y-57467716D01*
X120893442Y-57522112D01*
X120880212Y-57536379D01*
X120828258Y-57588334D01*
X120290400Y-57588334D01*
X120125119Y-57588175D01*
X119996797Y-57587436D01*
X119900061Y-57585718D01*
X119829536Y-57582626D01*
X119779850Y-57577760D01*
X119745628Y-57570725D01*
X119721496Y-57561124D01*
X119702082Y-57548558D01*
X119696771Y-57544464D01*
X119659808Y-57506287D01*
X119643729Y-57458067D01*
X119641000Y-57405489D01*
X119643118Y-57343599D01*
X119652397Y-57294559D01*
X119673230Y-57256884D01*
X119710005Y-57229084D01*
X119767115Y-57209673D01*
X119848949Y-57197164D01*
X119959899Y-57190068D01*
X120104354Y-57186898D01*
X120286706Y-57186167D01*
X120288364Y-57186167D01*
X120470471Y-57187027D01*
G37*
X120470471Y-57187027D02*
X120614660Y-57190552D01*
X120725325Y-57198160D01*
X120806863Y-57211267D01*
X120863671Y-57231291D01*
X120900144Y-57259650D01*
X120920678Y-57297759D01*
X120929670Y-57347037D01*
X120931494Y-57393504D01*
X120923500Y-57467716D01*
X120893442Y-57522112D01*
X120880212Y-57536379D01*
X120828258Y-57588334D01*
X120290400Y-57588334D01*
X120125119Y-57588175D01*
X119996797Y-57587436D01*
X119900061Y-57585718D01*
X119829536Y-57582626D01*
X119779850Y-57577760D01*
X119745628Y-57570725D01*
X119721496Y-57561124D01*
X119702082Y-57548558D01*
X119696771Y-57544464D01*
X119659808Y-57506287D01*
X119643729Y-57458067D01*
X119641000Y-57405489D01*
X119643118Y-57343599D01*
X119652397Y-57294559D01*
X119673230Y-57256884D01*
X119710005Y-57229084D01*
X119767115Y-57209673D01*
X119848949Y-57197164D01*
X119959899Y-57190068D01*
X120104354Y-57186898D01*
X120286706Y-57186167D01*
X120288364Y-57186167D01*
X120470471Y-57187027D01*
G36*
X130997786Y-57189422D02*
G01*
X131078378Y-57193891D01*
X131137843Y-57201442D01*
X131181478Y-57212528D01*
X131214580Y-57227603D01*
X131242351Y-57247044D01*
X131273537Y-57283296D01*
X131287459Y-57335039D01*
X131289722Y-57387302D01*
X131285126Y-57456650D01*
X131266739Y-57502352D01*
X131232098Y-57538767D01*
X131213255Y-57554118D01*
X131193273Y-57565904D01*
X131166683Y-57574580D01*
X131128018Y-57580601D01*
X131071811Y-57584419D01*
X130992594Y-57586491D01*
X130884900Y-57587270D01*
X130743261Y-57587210D01*
X130651778Y-57586992D01*
X130504871Y-57585885D01*
X130370135Y-57583488D01*
X130253963Y-57580025D01*
X130162751Y-57575721D01*
X130102893Y-57570801D01*
X130082842Y-57567019D01*
X130028137Y-57524398D01*
X129997248Y-57457850D01*
X129991744Y-57379464D01*
X130013191Y-57301328D01*
X130042549Y-57256139D01*
X130093597Y-57196750D01*
X130576280Y-57189959D01*
X130752034Y-57187909D01*
X130890770Y-57187579D01*
X130997786Y-57189422D01*
G37*
X130997786Y-57189422D02*
X131078378Y-57193891D01*
X131137843Y-57201442D01*
X131181478Y-57212528D01*
X131214580Y-57227603D01*
X131242351Y-57247044D01*
X131273537Y-57283296D01*
X131287459Y-57335039D01*
X131289722Y-57387302D01*
X131285126Y-57456650D01*
X131266739Y-57502352D01*
X131232098Y-57538767D01*
X131213255Y-57554118D01*
X131193273Y-57565904D01*
X131166683Y-57574580D01*
X131128018Y-57580601D01*
X131071811Y-57584419D01*
X130992594Y-57586491D01*
X130884900Y-57587270D01*
X130743261Y-57587210D01*
X130651778Y-57586992D01*
X130504871Y-57585885D01*
X130370135Y-57583488D01*
X130253963Y-57580025D01*
X130162751Y-57575721D01*
X130102893Y-57570801D01*
X130082842Y-57567019D01*
X130028137Y-57524398D01*
X129997248Y-57457850D01*
X129991744Y-57379464D01*
X130013191Y-57301328D01*
X130042549Y-57256139D01*
X130093597Y-57196750D01*
X130576280Y-57189959D01*
X130752034Y-57187909D01*
X130890770Y-57187579D01*
X130997786Y-57189422D01*
G36*
X136618638Y-57188591D02*
G01*
X136719076Y-57189842D01*
X137213069Y-57196750D01*
X137264118Y-57256139D01*
X137305105Y-57329843D01*
X137315362Y-57410603D01*
X137296316Y-57486223D01*
X137249395Y-57544504D01*
X137228861Y-57557431D01*
X137200913Y-57567590D01*
X137157947Y-57575381D01*
X137094963Y-57581073D01*
X137006959Y-57584934D01*
X136888935Y-57587231D01*
X136735889Y-57588233D01*
X136652322Y-57588334D01*
X136490403Y-57588145D01*
X136365330Y-57587309D01*
X136271615Y-57585413D01*
X136203773Y-57582051D01*
X136156317Y-57576811D01*
X136123758Y-57569285D01*
X136100612Y-57559064D01*
X136081396Y-57545742D01*
X136027899Y-57479109D01*
X136011346Y-57396035D01*
X136031743Y-57306117D01*
X136049917Y-57270264D01*
X136074251Y-57242083D01*
X136109547Y-57220760D01*
X136160612Y-57205485D01*
X136232249Y-57195443D01*
X136329262Y-57189821D01*
X136456457Y-57187808D01*
X136618638Y-57188591D01*
G37*
X136618638Y-57188591D02*
X136719076Y-57189842D01*
X137213069Y-57196750D01*
X137264118Y-57256139D01*
X137305105Y-57329843D01*
X137315362Y-57410603D01*
X137296316Y-57486223D01*
X137249395Y-57544504D01*
X137228861Y-57557431D01*
X137200913Y-57567590D01*
X137157947Y-57575381D01*
X137094963Y-57581073D01*
X137006959Y-57584934D01*
X136888935Y-57587231D01*
X136735889Y-57588233D01*
X136652322Y-57588334D01*
X136490403Y-57588145D01*
X136365330Y-57587309D01*
X136271615Y-57585413D01*
X136203773Y-57582051D01*
X136156317Y-57576811D01*
X136123758Y-57569285D01*
X136100612Y-57559064D01*
X136081396Y-57545742D01*
X136027899Y-57479109D01*
X136011346Y-57396035D01*
X136031743Y-57306117D01*
X136049917Y-57270264D01*
X136074251Y-57242083D01*
X136109547Y-57220760D01*
X136160612Y-57205485D01*
X136232249Y-57195443D01*
X136329262Y-57189821D01*
X136456457Y-57187808D01*
X136618638Y-57188591D01*
G36*
X139871530Y-57196840D02*
G01*
X140001361Y-57197388D01*
X140099283Y-57198815D01*
X140170511Y-57201538D01*
X140220257Y-57205977D01*
X140253734Y-57212551D01*
X140276155Y-57221679D01*
X140292732Y-57233780D01*
X140304371Y-57244963D01*
X140345165Y-57313022D01*
X140356066Y-57395060D01*
X140337662Y-57475677D01*
X140293195Y-57537250D01*
X140233806Y-57588334D01*
X139711112Y-57586901D01*
X139544301Y-57585551D01*
X139400312Y-57582595D01*
X139283654Y-57578217D01*
X139198837Y-57572602D01*
X139150372Y-57565936D01*
X139143207Y-57563577D01*
X139088173Y-57515608D01*
X139058175Y-57445074D01*
X139054926Y-57364743D01*
X139080142Y-57287382D01*
X139101917Y-57256139D01*
X139153001Y-57196750D01*
X139704580Y-57196750D01*
X139871530Y-57196840D01*
G37*
X139871530Y-57196840D02*
X140001361Y-57197388D01*
X140099283Y-57198815D01*
X140170511Y-57201538D01*
X140220257Y-57205977D01*
X140253734Y-57212551D01*
X140276155Y-57221679D01*
X140292732Y-57233780D01*
X140304371Y-57244963D01*
X140345165Y-57313022D01*
X140356066Y-57395060D01*
X140337662Y-57475677D01*
X140293195Y-57537250D01*
X140233806Y-57588334D01*
X139711112Y-57586901D01*
X139544301Y-57585551D01*
X139400312Y-57582595D01*
X139283654Y-57578217D01*
X139198837Y-57572602D01*
X139150372Y-57565936D01*
X139143207Y-57563577D01*
X139088173Y-57515608D01*
X139058175Y-57445074D01*
X139054926Y-57364743D01*
X139080142Y-57287382D01*
X139101917Y-57256139D01*
X139153001Y-57196750D01*
X139704580Y-57196750D01*
X139871530Y-57196840D01*
G36*
X153082904Y-57196842D02*
G01*
X153212076Y-57197398D01*
X153309386Y-57198844D01*
X153380068Y-57201602D01*
X153429360Y-57206097D01*
X153462495Y-57212752D01*
X153484710Y-57221990D01*
X153501240Y-57234236D01*
X153512371Y-57244963D01*
X153553165Y-57313022D01*
X153564066Y-57395060D01*
X153545662Y-57475677D01*
X153501195Y-57537250D01*
X153441806Y-57588334D01*
X152919112Y-57586901D01*
X152747054Y-57585509D01*
X152600678Y-57582450D01*
X152483922Y-57577889D01*
X152400723Y-57571988D01*
X152355020Y-57564913D01*
X152350298Y-57563172D01*
X152299309Y-57517202D01*
X152270803Y-57447922D01*
X152265802Y-57368511D01*
X152285329Y-57292149D01*
X152324970Y-57236698D01*
X152341107Y-57224498D01*
X152362710Y-57215059D01*
X152394972Y-57208029D01*
X152443083Y-57203058D01*
X152512235Y-57199795D01*
X152607619Y-57197890D01*
X152734428Y-57196992D01*
X152897853Y-57196752D01*
X152916634Y-57196750D01*
X153082904Y-57196842D01*
G37*
X153082904Y-57196842D02*
X153212076Y-57197398D01*
X153309386Y-57198844D01*
X153380068Y-57201602D01*
X153429360Y-57206097D01*
X153462495Y-57212752D01*
X153484710Y-57221990D01*
X153501240Y-57234236D01*
X153512371Y-57244963D01*
X153553165Y-57313022D01*
X153564066Y-57395060D01*
X153545662Y-57475677D01*
X153501195Y-57537250D01*
X153441806Y-57588334D01*
X152919112Y-57586901D01*
X152747054Y-57585509D01*
X152600678Y-57582450D01*
X152483922Y-57577889D01*
X152400723Y-57571988D01*
X152355020Y-57564913D01*
X152350298Y-57563172D01*
X152299309Y-57517202D01*
X152270803Y-57447922D01*
X152265802Y-57368511D01*
X152285329Y-57292149D01*
X152324970Y-57236698D01*
X152341107Y-57224498D01*
X152362710Y-57215059D01*
X152394972Y-57208029D01*
X152443083Y-57203058D01*
X152512235Y-57199795D01*
X152607619Y-57197890D01*
X152734428Y-57196992D01*
X152897853Y-57196752D01*
X152916634Y-57196750D01*
X153082904Y-57196842D01*
G36*
X154781638Y-57187027D02*
G01*
X154925826Y-57190552D01*
X155036492Y-57198160D01*
X155118030Y-57211267D01*
X155174838Y-57231291D01*
X155211311Y-57259650D01*
X155231845Y-57297759D01*
X155240836Y-57347037D01*
X155242660Y-57393504D01*
X155234667Y-57467716D01*
X155204609Y-57522112D01*
X155191379Y-57536379D01*
X155139424Y-57588334D01*
X154601567Y-57588334D01*
X154436286Y-57588175D01*
X154307964Y-57587436D01*
X154211227Y-57585718D01*
X154140703Y-57582626D01*
X154091016Y-57577760D01*
X154056794Y-57570725D01*
X154032663Y-57561124D01*
X154013249Y-57548558D01*
X154007938Y-57544464D01*
X153970975Y-57506287D01*
X153954896Y-57458067D01*
X153952167Y-57405489D01*
X153954284Y-57343599D01*
X153963564Y-57294559D01*
X153984396Y-57256884D01*
X154021172Y-57229084D01*
X154078282Y-57209673D01*
X154160116Y-57197164D01*
X154271066Y-57190068D01*
X154415521Y-57186898D01*
X154597873Y-57186167D01*
X154599531Y-57186167D01*
X154781638Y-57187027D01*
G37*
X154781638Y-57187027D02*
X154925826Y-57190552D01*
X155036492Y-57198160D01*
X155118030Y-57211267D01*
X155174838Y-57231291D01*
X155211311Y-57259650D01*
X155231845Y-57297759D01*
X155240836Y-57347037D01*
X155242660Y-57393504D01*
X155234667Y-57467716D01*
X155204609Y-57522112D01*
X155191379Y-57536379D01*
X155139424Y-57588334D01*
X154601567Y-57588334D01*
X154436286Y-57588175D01*
X154307964Y-57587436D01*
X154211227Y-57585718D01*
X154140703Y-57582626D01*
X154091016Y-57577760D01*
X154056794Y-57570725D01*
X154032663Y-57561124D01*
X154013249Y-57548558D01*
X154007938Y-57544464D01*
X153970975Y-57506287D01*
X153954896Y-57458067D01*
X153952167Y-57405489D01*
X153954284Y-57343599D01*
X153963564Y-57294559D01*
X153984396Y-57256884D01*
X154021172Y-57229084D01*
X154078282Y-57209673D01*
X154160116Y-57197164D01*
X154271066Y-57190068D01*
X154415521Y-57186898D01*
X154597873Y-57186167D01*
X154599531Y-57186167D01*
X154781638Y-57187027D01*
G36*
X160760342Y-57188444D02*
G01*
X160872718Y-57192133D01*
X160957136Y-57199797D01*
X161018379Y-57212221D01*
X161061229Y-57230191D01*
X161090466Y-57254494D01*
X161110873Y-57285916D01*
X161118458Y-57302608D01*
X161137847Y-57393316D01*
X161121878Y-57477296D01*
X161072739Y-57543720D01*
X161069120Y-57546647D01*
X161050424Y-57559468D01*
X161027415Y-57569361D01*
X160994749Y-57576702D01*
X160947085Y-57581869D01*
X160879080Y-57585238D01*
X160785391Y-57587188D01*
X160660675Y-57588093D01*
X160499590Y-57588332D01*
X160478267Y-57588334D01*
X159940409Y-57588334D01*
X159888455Y-57536379D01*
X159845487Y-57465877D01*
X159835646Y-57382286D01*
X159858975Y-57298928D01*
X159887549Y-57256139D01*
X159938598Y-57196750D01*
X160432591Y-57189842D01*
X160615226Y-57187942D01*
X160760342Y-57188444D01*
G37*
X160760342Y-57188444D02*
X160872718Y-57192133D01*
X160957136Y-57199797D01*
X161018379Y-57212221D01*
X161061229Y-57230191D01*
X161090466Y-57254494D01*
X161110873Y-57285916D01*
X161118458Y-57302608D01*
X161137847Y-57393316D01*
X161121878Y-57477296D01*
X161072739Y-57543720D01*
X161069120Y-57546647D01*
X161050424Y-57559468D01*
X161027415Y-57569361D01*
X160994749Y-57576702D01*
X160947085Y-57581869D01*
X160879080Y-57585238D01*
X160785391Y-57587188D01*
X160660675Y-57588093D01*
X160499590Y-57588332D01*
X160478267Y-57588334D01*
X159940409Y-57588334D01*
X159888455Y-57536379D01*
X159845487Y-57465877D01*
X159835646Y-57382286D01*
X159858975Y-57298928D01*
X159887549Y-57256139D01*
X159938598Y-57196750D01*
X160432591Y-57189842D01*
X160615226Y-57187942D01*
X160760342Y-57188444D01*
G36*
X178448728Y-57189325D02*
G01*
X178561443Y-57193574D01*
X178646049Y-57201990D01*
X178707275Y-57215377D01*
X178749852Y-57234543D01*
X178778507Y-57260294D01*
X178797971Y-57293437D01*
X178803372Y-57306631D01*
X178816814Y-57392369D01*
X178797558Y-57475908D01*
X178749382Y-57541736D01*
X178745275Y-57545083D01*
X178726055Y-57558551D01*
X178703321Y-57568883D01*
X178671604Y-57576481D01*
X178625434Y-57581751D01*
X178559341Y-57585095D01*
X178467856Y-57586916D01*
X178345510Y-57587619D01*
X178186832Y-57587608D01*
X178169271Y-57587583D01*
X177994019Y-57586749D01*
X177856683Y-57584657D01*
X177752861Y-57581081D01*
X177678147Y-57575795D01*
X177628137Y-57568573D01*
X177598428Y-57559188D01*
X177596415Y-57558127D01*
X177540937Y-57505501D01*
X177513457Y-57432306D01*
X177515397Y-57350924D01*
X177548182Y-57273740D01*
X177561717Y-57256139D01*
X177612766Y-57196750D01*
X178120052Y-57190096D01*
X178303174Y-57188434D01*
X178448728Y-57189325D01*
G37*
X178448728Y-57189325D02*
X178561443Y-57193574D01*
X178646049Y-57201990D01*
X178707275Y-57215377D01*
X178749852Y-57234543D01*
X178778507Y-57260294D01*
X178797971Y-57293437D01*
X178803372Y-57306631D01*
X178816814Y-57392369D01*
X178797558Y-57475908D01*
X178749382Y-57541736D01*
X178745275Y-57545083D01*
X178726055Y-57558551D01*
X178703321Y-57568883D01*
X178671604Y-57576481D01*
X178625434Y-57581751D01*
X178559341Y-57585095D01*
X178467856Y-57586916D01*
X178345510Y-57587619D01*
X178186832Y-57587608D01*
X178169271Y-57587583D01*
X177994019Y-57586749D01*
X177856683Y-57584657D01*
X177752861Y-57581081D01*
X177678147Y-57575795D01*
X177628137Y-57568573D01*
X177598428Y-57559188D01*
X177596415Y-57558127D01*
X177540937Y-57505501D01*
X177513457Y-57432306D01*
X177515397Y-57350924D01*
X177548182Y-57273740D01*
X177561717Y-57256139D01*
X177612766Y-57196750D01*
X178120052Y-57190096D01*
X178303174Y-57188434D01*
X178448728Y-57189325D01*
%TD*%
D11*
%TO.P,X1,5*%
%TO.N,Net-(X1-Pad5)*%
X105092500Y-108625640D03*
%TO.P,X1,6*%
%TO.N,Net-(X1-Pad6)*%
X105092500Y-111165640D03*
D12*
%TO.P,X1,3*%
%TO.N,Net-(X1-Pad3)*%
X102552500Y-108625640D03*
%TO.P,X1,4*%
%TO.N,Net-(X1-Pad4)*%
X102552500Y-111165640D03*
%TO.P,X1,1*%
%TO.N,VCC*%
X100012500Y-108625640D03*
D13*
%TO.P,X1,2*%
%TO.N,GND*%
X100012500Y-111165640D03*
%TD*%
D14*
%TO.P,BT1,1*%
%TO.N,Net-(BT1-Pad1)*%
X124820660Y-83047840D03*
X148630660Y-83047840D03*
D15*
%TO.P,BT1,2*%
%TO.N,GND*%
X136725660Y-83047840D03*
%TD*%
D16*
%TO.P,D1,1*%
%TO.N,GND*%
X175150000Y-109200000D03*
%TO.P,D1,2*%
%TO.N,VCC*%
X179750000Y-109200000D03*
%TD*%
D17*
%TO.P,REF\u002A\u002A,4*%
%TO.N,N/C*%
X171295060Y-49735740D03*
%TD*%
%TO.P,REF\u002A\u002A,4*%
%TO.N,N/C*%
X100726240Y-49804320D03*
%TD*%
D18*
%TO.P,SW1,*%
%TO.N,*%
X181632640Y-78882220D03*
X181632640Y-86182220D03*
X183842640Y-86182220D03*
X183842640Y-78882220D03*
D19*
%TO.P,SW1,3*%
%TO.N,VCC*%
X180982640Y-84782220D03*
%TO.P,SW1,2*%
%TO.N,Net-(BT1-Pad1)*%
X180982640Y-83282220D03*
%TO.P,SW1,1*%
%TO.N,Net-(SW1-Pad1)*%
X180982640Y-80282220D03*
%TD*%
D20*
%TO.N,Net-(BT1-Pad1)*%
X124820660Y-83047840D02*
X124866400Y-83047840D01*
X127971401Y-79942839D02*
X127971401Y-79940299D01*
X124866400Y-83047840D02*
X127971401Y-79942839D01*
X127971401Y-79940299D02*
X133863080Y-74048620D01*
X139631440Y-74048620D02*
X148630660Y-83047840D01*
X133863080Y-74048620D02*
X139631440Y-74048620D01*
X180748260Y-83047840D02*
X180982640Y-83282220D01*
X148630660Y-83047840D02*
X180748260Y-83047840D01*
%TO.N,GND*%
X162920680Y-109242860D02*
X136725660Y-83047840D01*
X175162180Y-109242860D02*
X162920680Y-109242860D01*
X107419259Y-112354241D02*
X136725660Y-83047840D01*
X101201101Y-112354241D02*
X107419259Y-112354241D01*
X100012500Y-111165640D02*
X101201101Y-112354241D01*
%TO.N,VCC*%
X179762180Y-86002680D02*
X179762180Y-109242860D01*
X180982640Y-84782220D02*
X179762180Y-86002680D01*
X94587060Y-112466120D02*
X98427540Y-108625640D01*
X94587060Y-114272060D02*
X94587060Y-112466120D01*
X97594420Y-117279420D02*
X94587060Y-114272060D01*
X98427540Y-108625640D02*
X100012500Y-108625640D01*
X179585620Y-117279420D02*
X97594420Y-117279420D01*
X179600000Y-109086880D02*
X179600000Y-117300000D01*
%TD*%
M02*
