%TF.GenerationSoftware,KiCad,Pcbnew,(5.1.10)-1*%
%TF.CreationDate,2021-10-02T23:42:35-05:00*%
%TF.ProjectId,OzSec 2021 - Speaker,4f7a5365-6320-4323-9032-31202d205370,rev?*%
%TF.SameCoordinates,Original*%
%TF.FileFunction,Soldermask,Bot*%
%TF.FilePolarity,Negative*%
%FSLAX46Y46*%
G04 Gerber Fmt 4.6, Leading zero omitted, Abs format (unit mm)*
G04 Created by KiCad (PCBNEW (5.1.10)-1) date 2021-10-02 23:42:35*
%MOMM*%
%LPD*%
G01*
G04 APERTURE LIST*
%ADD10C,0.100000*%
%ADD11C,0.120000*%
%ADD12C,2.127200*%
%ADD13O,2.127200X2.127200*%
%ADD14R,0.500000X0.700000*%
%ADD15O,12.900000X5.900000*%
%ADD16C,1.300000*%
G04 APERTURE END LIST*
D10*
%TO.C,D1*%
G36*
X180726600Y-108031600D02*
G01*
X178821600Y-108031600D01*
X178796200Y-110419200D01*
X180726600Y-110419200D01*
X180726600Y-108031600D01*
G37*
X180726600Y-108031600D02*
X178821600Y-108031600D01*
X178796200Y-110419200D01*
X180726600Y-110419200D01*
X180726600Y-108031600D01*
G36*
X176078400Y-108031600D02*
G01*
X174224200Y-108031600D01*
X174224200Y-110368400D01*
X176078400Y-110368400D01*
X176078400Y-108031600D01*
G37*
X176078400Y-108031600D02*
X174224200Y-108031600D01*
X174224200Y-110368400D01*
X176078400Y-110368400D01*
X176078400Y-108031600D01*
D11*
X178527631Y-109200000D02*
G75*
G03*
X178527631Y-109200000I-1077631J0D01*
G01*
D10*
G36*
X177831000Y-110216000D02*
G01*
X178085000Y-110089000D01*
X178339000Y-109835000D01*
X178466000Y-109581000D01*
X178527630Y-109200000D01*
X178466000Y-108819000D01*
X178212000Y-108438000D01*
X177958000Y-108311000D01*
X177450000Y-108122370D01*
X177069000Y-108184000D01*
X176688000Y-108438000D01*
X176434000Y-108819000D01*
X176372370Y-109200000D01*
X176434000Y-109581000D01*
X176688000Y-109962000D01*
X177069000Y-110216000D01*
X177450000Y-110277630D01*
X177831000Y-110216000D01*
G37*
X177831000Y-110216000D02*
X178085000Y-110089000D01*
X178339000Y-109835000D01*
X178466000Y-109581000D01*
X178527630Y-109200000D01*
X178466000Y-108819000D01*
X178212000Y-108438000D01*
X177958000Y-108311000D01*
X177450000Y-108122370D01*
X177069000Y-108184000D01*
X176688000Y-108438000D01*
X176434000Y-108819000D01*
X176372370Y-109200000D01*
X176434000Y-109581000D01*
X176688000Y-109962000D01*
X177069000Y-110216000D01*
X177450000Y-110277630D01*
X177831000Y-110216000D01*
%TD*%
D12*
%TO.C,X1*%
X105092500Y-108625640D03*
X105092500Y-111165640D03*
D13*
X102552500Y-108625640D03*
X102552500Y-111165640D03*
X100012500Y-108625640D03*
G36*
G01*
X99148900Y-110102040D02*
X100876100Y-110102040D01*
G75*
G02*
X101076100Y-110302040I0J-200000D01*
G01*
X101076100Y-112029240D01*
G75*
G02*
X100876100Y-112229240I-200000J0D01*
G01*
X99148900Y-112229240D01*
G75*
G02*
X98948900Y-112029240I0J200000D01*
G01*
X98948900Y-110302040D01*
G75*
G02*
X99148900Y-110102040I200000J0D01*
G01*
G37*
%TD*%
%TO.C,BT1*%
G36*
G01*
X123320660Y-85827840D02*
X123320660Y-80267840D01*
G75*
G02*
X123520660Y-80067840I200000J0D01*
G01*
X126120660Y-80067840D01*
G75*
G02*
X126320660Y-80267840I0J-200000D01*
G01*
X126320660Y-85827840D01*
G75*
G02*
X126120660Y-86027840I-200000J0D01*
G01*
X123520660Y-86027840D01*
G75*
G02*
X123320660Y-85827840I0J200000D01*
G01*
G37*
G36*
G01*
X147130660Y-85827840D02*
X147130660Y-80267840D01*
G75*
G02*
X147330660Y-80067840I200000J0D01*
G01*
X149930660Y-80067840D01*
G75*
G02*
X150130660Y-80267840I0J-200000D01*
G01*
X150130660Y-85827840D01*
G75*
G02*
X149930660Y-86027840I-200000J0D01*
G01*
X147330660Y-86027840D01*
G75*
G02*
X147130660Y-85827840I0J200000D01*
G01*
G37*
G36*
G01*
X132525660Y-85827840D02*
X132525660Y-80267840D01*
G75*
G02*
X132725660Y-80067840I200000J0D01*
G01*
X140725660Y-80067840D01*
G75*
G02*
X140925660Y-80267840I0J-200000D01*
G01*
X140925660Y-85827840D01*
G75*
G02*
X140725660Y-86027840I-200000J0D01*
G01*
X132725660Y-86027840D01*
G75*
G02*
X132525660Y-85827840I0J200000D01*
G01*
G37*
%TD*%
D14*
%TO.C,D1*%
X179000000Y-109575000D03*
X175900000Y-108825000D03*
%TD*%
D15*
%TO.C,REF\u002A\u002A*%
X171295060Y-49735740D03*
%TD*%
%TO.C,REF\u002A\u002A*%
X100726240Y-49804320D03*
%TD*%
%TO.C,SW1*%
G36*
G01*
X181232640Y-78182220D02*
X182032640Y-78182220D01*
G75*
G02*
X182232640Y-78382220I0J-200000D01*
G01*
X182232640Y-79382220D01*
G75*
G02*
X182032640Y-79582220I-200000J0D01*
G01*
X181232640Y-79582220D01*
G75*
G02*
X181032640Y-79382220I0J200000D01*
G01*
X181032640Y-78382220D01*
G75*
G02*
X181232640Y-78182220I200000J0D01*
G01*
G37*
G36*
G01*
X181232640Y-85482220D02*
X182032640Y-85482220D01*
G75*
G02*
X182232640Y-85682220I0J-200000D01*
G01*
X182232640Y-86682220D01*
G75*
G02*
X182032640Y-86882220I-200000J0D01*
G01*
X181232640Y-86882220D01*
G75*
G02*
X181032640Y-86682220I0J200000D01*
G01*
X181032640Y-85682220D01*
G75*
G02*
X181232640Y-85482220I200000J0D01*
G01*
G37*
G36*
G01*
X183442640Y-85482220D02*
X184242640Y-85482220D01*
G75*
G02*
X184442640Y-85682220I0J-200000D01*
G01*
X184442640Y-86682220D01*
G75*
G02*
X184242640Y-86882220I-200000J0D01*
G01*
X183442640Y-86882220D01*
G75*
G02*
X183242640Y-86682220I0J200000D01*
G01*
X183242640Y-85682220D01*
G75*
G02*
X183442640Y-85482220I200000J0D01*
G01*
G37*
G36*
G01*
X183442640Y-78182220D02*
X184242640Y-78182220D01*
G75*
G02*
X184442640Y-78382220I0J-200000D01*
G01*
X184442640Y-79382220D01*
G75*
G02*
X184242640Y-79582220I-200000J0D01*
G01*
X183442640Y-79582220D01*
G75*
G02*
X183242640Y-79382220I0J200000D01*
G01*
X183242640Y-78382220D01*
G75*
G02*
X183442640Y-78182220I200000J0D01*
G01*
G37*
G36*
G01*
X180232640Y-84232220D02*
X181732640Y-84232220D01*
G75*
G02*
X181932640Y-84432220I0J-200000D01*
G01*
X181932640Y-85132220D01*
G75*
G02*
X181732640Y-85332220I-200000J0D01*
G01*
X180232640Y-85332220D01*
G75*
G02*
X180032640Y-85132220I0J200000D01*
G01*
X180032640Y-84432220D01*
G75*
G02*
X180232640Y-84232220I200000J0D01*
G01*
G37*
G36*
G01*
X180232640Y-82732220D02*
X181732640Y-82732220D01*
G75*
G02*
X181932640Y-82932220I0J-200000D01*
G01*
X181932640Y-83632220D01*
G75*
G02*
X181732640Y-83832220I-200000J0D01*
G01*
X180232640Y-83832220D01*
G75*
G02*
X180032640Y-83632220I0J200000D01*
G01*
X180032640Y-82932220D01*
G75*
G02*
X180232640Y-82732220I200000J0D01*
G01*
G37*
G36*
G01*
X180232640Y-79732220D02*
X181732640Y-79732220D01*
G75*
G02*
X181932640Y-79932220I0J-200000D01*
G01*
X181932640Y-80632220D01*
G75*
G02*
X181732640Y-80832220I-200000J0D01*
G01*
X180232640Y-80832220D01*
G75*
G02*
X180032640Y-80632220I0J200000D01*
G01*
X180032640Y-79932220D01*
G75*
G02*
X180232640Y-79732220I200000J0D01*
G01*
G37*
D16*
X182742640Y-84032220D03*
X182742640Y-81032220D03*
%TD*%
M02*
