G04 #@! TF.GenerationSoftware,KiCad,Pcbnew,(5.1.10)-1*
G04 #@! TF.CreationDate,2021-09-04T12:13:35-05:00*
G04 #@! TF.ProjectId,OzSec 2021 - Over the Rainbow v2_00(Svg2Shenzen),4f7a5365-6320-4323-9032-31202d204f76,rev?*
G04 #@! TF.SameCoordinates,Original*
G04 #@! TF.FileFunction,Profile,NP*
%FSLAX46Y46*%
G04 Gerber Fmt 4.6, Leading zero omitted, Abs format (unit mm)*
G04 Created by KiCad (PCBNEW (5.1.10)-1) date 2021-09-04 12:13:35*
%MOMM*%
%LPD*%
G01*
G04 APERTURE LIST*
G04 #@! TA.AperFunction,Profile*
%ADD10C,0.100000*%
G04 #@! TD*
G04 APERTURE END LIST*
D10*
X97144180Y-46296620D02*
X174303480Y-46296620D01*
X174303480Y-46296620D02*
X174839080Y-46310080D01*
X174839080Y-46310080D02*
X175367480Y-46350010D01*
X175367480Y-46350010D02*
X175888080Y-46415780D01*
X175888080Y-46415780D02*
X176400080Y-46506740D01*
X176400080Y-46506740D02*
X176902980Y-46622250D01*
X176902980Y-46622250D02*
X177396180Y-46761670D01*
X177396180Y-46761670D02*
X177878880Y-46924360D01*
X177878880Y-46924360D02*
X178350580Y-47109720D01*
X178350580Y-47109720D02*
X178810480Y-47316920D01*
X178810480Y-47316920D02*
X179258080Y-47545620D01*
X179258080Y-47545620D02*
X179692680Y-47794920D01*
X179692680Y-47794920D02*
X180113680Y-48064320D01*
X180113680Y-48064320D02*
X180520380Y-48353120D01*
X180520380Y-48353120D02*
X180912180Y-48660720D01*
X180912180Y-48660720D02*
X181288480Y-48986420D01*
X181288480Y-48986420D02*
X181648480Y-49329620D01*
X181648480Y-49329620D02*
X181991680Y-49689620D01*
X181991680Y-49689620D02*
X182317380Y-50065820D01*
X182317380Y-50065820D02*
X182624980Y-50457620D01*
X182624980Y-50457620D02*
X182913780Y-50864320D01*
X182913780Y-50864320D02*
X183183080Y-51285320D01*
X183183080Y-51285320D02*
X183432480Y-51719920D01*
X183432480Y-51719920D02*
X183661080Y-52167520D01*
X183661080Y-52167520D02*
X183868380Y-52627520D01*
X183868380Y-52627520D02*
X184053680Y-53099220D01*
X184053680Y-53099220D02*
X184216380Y-53581920D01*
X184216380Y-53581920D02*
X184355780Y-54075020D01*
X184355780Y-54075020D02*
X184471280Y-54577920D01*
X184471280Y-54577920D02*
X184562280Y-55090020D01*
X184562280Y-55090020D02*
X184628080Y-55610620D01*
X184628080Y-55610620D02*
X184667980Y-56139020D01*
X184667980Y-56139020D02*
X184681480Y-56674620D01*
X184681480Y-56674620D02*
X184681480Y-126303620D01*
X184681480Y-126303620D02*
X184667980Y-126839220D01*
X184667980Y-126839220D02*
X184628080Y-127367620D01*
X184628080Y-127367620D02*
X184562280Y-127888120D01*
X184562280Y-127888120D02*
X184471280Y-128400220D01*
X184471280Y-128400220D02*
X184355780Y-128903120D01*
X184355780Y-128903120D02*
X184216380Y-129396320D01*
X184216380Y-129396320D02*
X184053680Y-129879020D01*
X184053680Y-129879020D02*
X183868380Y-130350620D01*
X183868380Y-130350620D02*
X183661080Y-130810620D01*
X183661080Y-130810620D02*
X183432480Y-131258220D01*
X183432480Y-131258220D02*
X183183080Y-131692820D01*
X183183080Y-131692820D02*
X182913780Y-132113820D01*
X182913780Y-132113820D02*
X182624980Y-132520520D01*
X182624980Y-132520520D02*
X182317380Y-132912320D01*
X182317380Y-132912320D02*
X181991680Y-133288520D01*
X181991680Y-133288520D02*
X181648480Y-133648620D01*
X181648480Y-133648620D02*
X181288480Y-133991820D01*
X181288480Y-133991820D02*
X180912180Y-134317520D01*
X180912180Y-134317520D02*
X180520380Y-134625020D01*
X180520380Y-134625020D02*
X180113680Y-134913820D01*
X180113680Y-134913820D02*
X179692680Y-135183220D01*
X179692680Y-135183220D02*
X179258080Y-135432620D01*
X179258080Y-135432620D02*
X178810480Y-135661220D01*
X178810480Y-135661220D02*
X178350580Y-135868520D01*
X178350580Y-135868520D02*
X177878880Y-136053820D01*
X177878880Y-136053820D02*
X177396180Y-136216520D01*
X177396180Y-136216520D02*
X176902980Y-136355920D01*
X176902980Y-136355920D02*
X176400080Y-136471420D01*
X176400080Y-136471420D02*
X175888080Y-136562420D01*
X175888080Y-136562420D02*
X175367480Y-136628120D01*
X175367480Y-136628120D02*
X174839080Y-136668120D01*
X174839080Y-136668120D02*
X174303480Y-136681520D01*
X174303480Y-136681520D02*
X97144180Y-136681520D01*
X97144180Y-136681520D02*
X96608580Y-136668120D01*
X96608580Y-136668120D02*
X96080080Y-136628120D01*
X96080080Y-136628120D02*
X95559580Y-136562420D01*
X95559580Y-136562420D02*
X95047480Y-136471420D01*
X95047480Y-136471420D02*
X94544590Y-136355920D01*
X94544590Y-136355920D02*
X94051450Y-136216520D01*
X94051450Y-136216520D02*
X93568720Y-136053820D01*
X93568720Y-136053820D02*
X93097060Y-135868520D01*
X93097060Y-135868520D02*
X92637110Y-135661220D01*
X92637110Y-135661220D02*
X92189500Y-135432620D01*
X92189500Y-135432620D02*
X91754890Y-135183220D01*
X91754890Y-135183220D02*
X91333900Y-134913820D01*
X91333900Y-134913820D02*
X90927190Y-134625020D01*
X90927190Y-134625020D02*
X90535400Y-134317520D01*
X90535400Y-134317520D02*
X90159170Y-133991820D01*
X90159170Y-133991820D02*
X89799140Y-133648620D01*
X89799140Y-133648620D02*
X89455950Y-133288520D01*
X89455950Y-133288520D02*
X89130250Y-132912320D01*
X89130250Y-132912320D02*
X88822680Y-132520520D01*
X88822680Y-132520520D02*
X88533880Y-132113820D01*
X88533880Y-132113820D02*
X88264490Y-131692820D01*
X88264490Y-131692820D02*
X88015150Y-131258220D01*
X88015150Y-131258220D02*
X87786520Y-130810620D01*
X87786520Y-130810620D02*
X87579220Y-130350620D01*
X87579220Y-130350620D02*
X87393910Y-129879020D01*
X87393910Y-129879020D02*
X87231220Y-129396320D01*
X87231220Y-129396320D02*
X87091800Y-128903120D01*
X87091800Y-128903120D02*
X86976290Y-128400220D01*
X86976290Y-128400220D02*
X86885330Y-127888120D01*
X86885330Y-127888120D02*
X86819560Y-127367620D01*
X86819560Y-127367620D02*
X86779630Y-126839220D01*
X86779630Y-126839220D02*
X86766170Y-126303620D01*
X86766170Y-126303620D02*
X86766170Y-56674620D01*
X86766170Y-56674620D02*
X86779630Y-56139020D01*
X86779630Y-56139020D02*
X86819560Y-55610620D01*
X86819560Y-55610620D02*
X86885330Y-55090020D01*
X86885330Y-55090020D02*
X86976290Y-54577920D01*
X86976290Y-54577920D02*
X87091800Y-54075020D01*
X87091800Y-54075020D02*
X87231220Y-53581920D01*
X87231220Y-53581920D02*
X87393910Y-53099220D01*
X87393910Y-53099220D02*
X87579220Y-52627520D01*
X87579220Y-52627520D02*
X87786520Y-52167520D01*
X87786520Y-52167520D02*
X88015150Y-51719920D01*
X88015150Y-51719920D02*
X88264490Y-51285320D01*
X88264490Y-51285320D02*
X88533880Y-50864320D01*
X88533880Y-50864320D02*
X88822680Y-50457620D01*
X88822680Y-50457620D02*
X89130250Y-50065820D01*
X89130250Y-50065820D02*
X89455950Y-49689620D01*
X89455950Y-49689620D02*
X89799140Y-49329620D01*
X89799140Y-49329620D02*
X90159170Y-48986420D01*
X90159170Y-48986420D02*
X90535400Y-48660720D01*
X90535400Y-48660720D02*
X90927190Y-48353120D01*
X90927190Y-48353120D02*
X91333900Y-48064320D01*
X91333900Y-48064320D02*
X91754890Y-47794920D01*
X91754890Y-47794920D02*
X92189500Y-47545620D01*
X92189500Y-47545620D02*
X92637110Y-47316920D01*
X92637110Y-47316920D02*
X93097060Y-47109720D01*
X93097060Y-47109720D02*
X93568720Y-46924360D01*
X93568720Y-46924360D02*
X94051450Y-46761670D01*
X94051450Y-46761670D02*
X94544590Y-46622250D01*
X94544590Y-46622250D02*
X95047480Y-46506740D01*
X95047480Y-46506740D02*
X95559580Y-46415780D01*
X95559580Y-46415780D02*
X96080080Y-46350010D01*
X96080080Y-46350010D02*
X96608580Y-46310080D01*
X96608580Y-46310080D02*
X97144180Y-46296620D01*
X97144180Y-46296620D02*
X97144180Y-46296620D01*
X97144180Y-46296620D02*
X97144180Y-46296620D01*
M02*
